<svg width="447" height="248" viewBox="0 0 447 248" fill="none" xmlns="http://www.w3.org/2000/svg">
<rect width="120" height="40" rx="4" fill="#1A1A1A"/>
<path d="M30.432 25C30.1973 25 30 24.92 29.84 24.76C29.68 24.6 29.6 24.4027 29.6 24.168V13.336C29.6 13.0907 29.68 12.8933 29.84 12.744C30 12.584 30.1973 12.504 30.432 12.504H33.632C34.432 12.504 35.1413 12.68 35.76 13.032C36.3787 13.384 36.8587 13.8747 37.2 14.504C37.552 15.1227 37.728 15.8373 37.728 16.648C37.728 17.4267 37.552 18.12 37.2 18.728C36.8587 19.336 36.3787 19.8107 35.76 20.152C35.1413 20.4933 34.432 20.664 33.632 20.664H31.264V24.168C31.264 24.4027 31.184 24.6 31.024 24.76C30.8747 24.92 30.6773 25 30.432 25ZM31.264 19.128H33.632C34.3573 19.128 34.9547 18.8987 35.424 18.44C35.8933 17.9707 36.128 17.3733 36.128 16.648C36.128 16.136 36.0213 15.688 35.808 15.304C35.5947 14.9093 35.3013 14.6 34.928 14.376C34.5547 14.152 34.1227 14.04 33.632 14.04H31.264V19.128ZM40.2088 25C39.6754 25 39.4088 24.7333 39.4088 24.2V17.048C39.4088 16.5147 39.6754 16.248 40.2088 16.248C40.7421 16.248 41.0088 16.5147 41.0088 17.048V17.352C41.3288 16.9787 41.7181 16.6853 42.1768 16.472C42.6461 16.2587 43.1528 16.152 43.6968 16.152C44.3368 16.152 44.8114 16.2587 45.1208 16.472C45.4408 16.6747 45.5634 16.92 45.4888 17.208C45.4354 17.432 45.3288 17.5813 45.1688 17.656C45.0088 17.72 44.8221 17.7307 44.6088 17.688C43.9261 17.5493 43.3128 17.5387 42.7688 17.656C42.2248 17.7733 41.7928 17.992 41.4728 18.312C41.1634 18.632 41.0088 19.0373 41.0088 19.528V24.2C41.0088 24.7333 40.7421 25 40.2088 25ZM48.166 25C47.9313 25 47.734 24.9253 47.574 24.776C47.4247 24.616 47.35 24.4187 47.35 24.184V17.064C47.35 16.8187 47.4247 16.6213 47.574 16.472C47.734 16.3227 47.9313 16.248 48.166 16.248C48.4113 16.248 48.6087 16.3227 48.758 16.472C48.9073 16.6213 48.982 16.8187 48.982 17.064V24.184C48.982 24.4187 48.9073 24.616 48.758 24.776C48.6087 24.9253 48.4113 25 48.166 25ZM48.166 14.824C47.878 14.824 47.6273 14.7227 47.414 14.52C47.2113 14.3067 47.11 14.056 47.11 13.768C47.11 13.48 47.2113 13.2347 47.414 13.032C47.6273 12.8187 47.878 12.712 48.166 12.712C48.454 12.712 48.6993 12.8187 48.902 13.032C49.1153 13.2347 49.222 13.48 49.222 13.768C49.222 14.056 49.1153 14.3067 48.902 14.52C48.6993 14.7227 48.454 14.824 48.166 14.824ZM52.8341 25.016C52.5995 25.016 52.4021 24.9413 52.2421 24.792C52.0928 24.632 52.0181 24.4347 52.0181 24.2V17.08C52.0181 16.8347 52.0928 16.6373 52.2421 16.488C52.4021 16.3387 52.5995 16.264 52.8341 16.264C53.0795 16.264 53.2768 16.3387 53.4261 16.488C53.5755 16.6373 53.6501 16.824 53.6501 17.048C53.9275 16.7707 54.2581 16.5573 54.6421 16.408C55.0261 16.248 55.4421 16.168 55.8901 16.168C57.0101 16.168 57.8528 16.5893 58.4181 17.432C58.7275 17.0373 59.1221 16.728 59.6021 16.504C60.0821 16.28 60.6208 16.168 61.2181 16.168C62.1355 16.168 62.8821 16.4667 63.4581 17.064C64.0341 17.6613 64.3221 18.5147 64.3221 19.624V24.2C64.3221 24.4347 64.2475 24.632 64.0981 24.792C63.9488 24.9413 63.7515 25.016 63.5061 25.016C63.2715 25.016 63.0741 24.9413 62.9141 24.792C62.7648 24.632 62.6901 24.4347 62.6901 24.2V19.624C62.6901 18.952 62.5248 18.456 62.1941 18.136C61.8635 17.8053 61.4315 17.64 60.8981 17.64C60.3435 17.64 59.8848 17.832 59.5221 18.216C59.1701 18.6 58.9941 19.0907 58.9941 19.688V24.2C58.9941 24.4347 58.9195 24.632 58.7701 24.792C58.6208 24.9413 58.4235 25.016 58.1781 25.016C57.9435 25.016 57.7461 24.9413 57.5861 24.792C57.4368 24.632 57.3621 24.4347 57.3621 24.2V19.624C57.3621 18.952 57.1968 18.456 56.8661 18.136C56.5355 17.8053 56.1035 17.64 55.5701 17.64C55.0155 17.64 54.5568 17.832 54.1941 18.216C53.8315 18.6 53.6501 19.0907 53.6501 19.688V24.2C53.6501 24.4347 53.5755 24.632 53.4261 24.792C53.2768 24.9413 53.0795 25.016 52.8341 25.016ZM70.6818 25.064C69.9031 25.064 69.2044 24.872 68.5858 24.488C67.9671 24.0933 67.4764 23.5653 67.1138 22.904C66.7618 22.232 66.5858 21.4747 66.5858 20.632C66.5858 19.7893 66.7778 19.032 67.1618 18.36C67.5564 17.688 68.0844 17.16 68.7458 16.776C69.4178 16.3813 70.1698 16.184 71.0018 16.184C71.8338 16.184 72.5804 16.3813 73.2418 16.776C73.9031 17.16 74.4258 17.688 74.8098 18.36C75.2044 19.032 75.4018 19.7893 75.4018 20.632V24.2C75.4018 24.4347 75.3218 24.632 75.1618 24.792C75.0124 24.9413 74.8204 25.016 74.5858 25.016C74.3511 25.016 74.1538 24.9413 73.9938 24.792C73.8444 24.632 73.7698 24.4347 73.7698 24.2V23.608C73.3964 24.056 72.9431 24.4133 72.4098 24.68C71.8871 24.936 71.3111 25.064 70.6818 25.064ZM71.0018 23.624C71.5458 23.624 72.0311 23.496 72.4578 23.24C72.8844 22.9733 73.2204 22.616 73.4658 22.168C73.7111 21.7093 73.8338 21.1973 73.8338 20.632C73.8338 20.056 73.7111 19.544 73.4658 19.096C73.2204 18.6373 72.8844 18.28 72.4578 18.024C72.0311 17.7573 71.5458 17.624 71.0018 17.624C70.4684 17.624 69.9831 17.7573 69.5458 18.024C69.1191 18.28 68.7778 18.6373 68.5218 19.096C68.2764 19.544 68.1538 20.056 68.1538 20.632C68.1538 21.1973 68.2764 21.7093 68.5218 22.168C68.7778 22.616 69.1191 22.9733 69.5458 23.24C69.9831 23.496 70.4684 23.624 71.0018 23.624ZM78.6306 25C78.0973 25 77.8306 24.7333 77.8306 24.2V17.048C77.8306 16.5147 78.0973 16.248 78.6306 16.248C79.164 16.248 79.4306 16.5147 79.4306 17.048V17.352C79.7506 16.9787 80.14 16.6853 80.5986 16.472C81.068 16.2587 81.5746 16.152 82.1186 16.152C82.7586 16.152 83.2333 16.2587 83.5426 16.472C83.8626 16.6747 83.9853 16.92 83.9106 17.208C83.8573 17.432 83.7506 17.5813 83.5906 17.656C83.4306 17.72 83.244 17.7307 83.0306 17.688C82.348 17.5493 81.7346 17.5387 81.1906 17.656C80.6466 17.7733 80.2146 17.992 79.8946 18.312C79.5853 18.632 79.4306 19.0373 79.4306 19.528V24.2C79.4306 24.7333 79.164 25 78.6306 25ZM87.1799 28.84C87.0732 28.84 86.9452 28.808 86.7959 28.744C86.3265 28.5307 86.1985 28.1947 86.4119 27.736L88.0119 24.136L84.4119 17.304C84.3052 17.1013 84.2892 16.9093 84.3639 16.728C84.4492 16.536 84.5932 16.3973 84.7959 16.312C84.9985 16.2267 85.1905 16.2213 85.3719 16.296C85.5532 16.36 85.6919 16.4933 85.7879 16.696L88.7159 22.52L91.2919 16.712C91.5052 16.264 91.8412 16.136 92.2999 16.328C92.7799 16.5307 92.9132 16.8667 92.6999 17.336L87.8039 28.344C87.6759 28.6747 87.4679 28.84 87.1799 28.84Z" fill="white"/>
<rect x="184.5" y="0.5" width="119" height="39" rx="3.5" stroke="#1A1A1A"/>
<path d="M204.568 25.16C203.885 25.16 203.235 25.0533 202.616 24.84C201.997 24.6267 201.459 24.328 201 23.944C200.541 23.56 200.205 23.1173 199.992 22.616C199.885 22.392 199.885 22.184 199.992 21.992C200.109 21.8 200.301 21.6773 200.568 21.624C200.76 21.5813 200.947 21.6133 201.128 21.72C201.32 21.816 201.464 21.9653 201.56 22.168C201.688 22.4347 201.896 22.68 202.184 22.904C202.483 23.128 202.84 23.3093 203.256 23.448C203.672 23.5867 204.109 23.656 204.568 23.656C205.08 23.656 205.549 23.576 205.976 23.416C206.413 23.256 206.765 23.0267 207.032 22.728C207.299 22.4187 207.432 22.04 207.432 21.592C207.432 21.0267 207.208 20.52 206.76 20.072C206.323 19.624 205.597 19.3467 204.584 19.24C203.261 19.112 202.221 18.7227 201.464 18.072C200.707 17.4213 200.328 16.616 200.328 15.656C200.328 14.952 200.525 14.3547 200.92 13.864C201.315 13.3733 201.848 13 202.52 12.744C203.203 12.488 203.96 12.36 204.792 12.36C205.763 12.36 206.557 12.5573 207.176 12.952C207.795 13.3467 208.307 13.8693 208.712 14.52C208.861 14.7547 208.92 14.9787 208.888 15.192C208.867 15.3947 208.765 15.5547 208.584 15.672C208.381 15.8 208.163 15.8267 207.928 15.752C207.693 15.6773 207.517 15.5387 207.4 15.336C207.133 14.8773 206.787 14.52 206.36 14.264C205.944 14.008 205.405 13.8747 204.744 13.864C203.955 13.8533 203.293 14.0027 202.76 14.312C202.227 14.6107 201.96 15.0747 201.96 15.704C201.96 16.024 202.04 16.3333 202.2 16.632C202.371 16.92 202.675 17.1707 203.112 17.384C203.56 17.5973 204.2 17.7467 205.032 17.832C206.301 17.96 207.288 18.3493 207.992 19C208.707 19.64 209.064 20.488 209.064 21.544C209.064 22.152 208.936 22.68 208.68 23.128C208.435 23.576 208.099 23.9547 207.672 24.264C207.256 24.5627 206.776 24.7867 206.232 24.936C205.699 25.0853 205.144 25.16 204.568 25.16ZM215.568 25.064C214.682 25.064 213.893 24.8773 213.2 24.504C212.517 24.12 211.978 23.5973 211.584 22.936C211.2 22.264 211.008 21.496 211.008 20.632C211.008 19.7573 211.189 18.9893 211.552 18.328C211.925 17.656 212.437 17.1333 213.088 16.76C213.738 16.376 214.485 16.184 215.328 16.184C216.16 16.184 216.874 16.3707 217.472 16.744C218.069 17.1067 218.522 17.6133 218.832 18.264C219.152 18.904 219.312 19.6453 219.312 20.488C219.312 20.6907 219.242 20.8613 219.104 21C218.965 21.128 218.789 21.192 218.576 21.192H212.496C212.613 21.928 212.949 22.5307 213.504 23C214.069 23.4587 214.757 23.688 215.568 23.688C215.898 23.688 216.234 23.6293 216.576 23.512C216.928 23.384 217.21 23.24 217.424 23.08C217.584 22.9627 217.754 22.904 217.936 22.904C218.128 22.8933 218.293 22.9467 218.432 23.064C218.613 23.224 218.709 23.4 218.72 23.592C218.73 23.784 218.645 23.9493 218.464 24.088C218.101 24.376 217.648 24.6107 217.104 24.792C216.57 24.9733 216.058 25.064 215.568 25.064ZM215.328 17.56C214.538 17.56 213.904 17.7787 213.424 18.216C212.944 18.6533 212.64 19.2187 212.512 19.912H217.84C217.744 19.2293 217.482 18.6693 217.056 18.232C216.629 17.784 216.053 17.56 215.328 17.56ZM225.049 25.064C224.195 25.064 223.433 24.872 222.761 24.488C222.099 24.0933 221.577 23.5653 221.193 22.904C220.819 22.232 220.633 21.4747 220.633 20.632C220.633 19.768 220.819 19 221.193 18.328C221.566 17.656 222.078 17.1333 222.729 16.76C223.379 16.376 224.126 16.184 224.969 16.184C226.227 16.184 227.273 16.664 228.105 17.624C228.254 17.7947 228.307 17.9707 228.265 18.152C228.222 18.3333 228.105 18.4933 227.913 18.632C227.763 18.7387 227.598 18.776 227.417 18.744C227.235 18.7013 227.07 18.6053 226.921 18.456C226.398 17.9013 225.747 17.624 224.969 17.624C224.147 17.624 223.481 17.9013 222.969 18.456C222.457 19 222.201 19.7253 222.201 20.632C222.201 21.208 222.318 21.72 222.553 22.168C222.798 22.616 223.134 22.9733 223.561 23.24C223.987 23.496 224.483 23.624 225.049 23.624C225.774 23.624 226.361 23.4373 226.809 23.064C226.979 22.9253 227.155 22.8507 227.337 22.84C227.518 22.8187 227.678 22.8667 227.817 22.984C227.998 23.1333 228.099 23.304 228.121 23.496C228.142 23.6773 228.078 23.8427 227.929 23.992C227.161 24.7067 226.201 25.064 225.049 25.064ZM234.658 25.064C233.794 25.064 233.031 24.8773 232.37 24.504C231.709 24.12 231.186 23.5973 230.802 22.936C230.429 22.264 230.242 21.496 230.242 20.632C230.242 19.7573 230.429 18.9893 230.802 18.328C231.186 17.656 231.709 17.1333 232.37 16.76C233.031 16.376 233.794 16.184 234.658 16.184C235.511 16.184 236.269 16.376 236.93 16.76C237.591 17.1333 238.109 17.656 238.482 18.328C238.866 18.9893 239.058 19.7573 239.058 20.632C239.058 21.496 238.871 22.264 238.498 22.936C238.125 23.5973 237.607 24.12 236.946 24.504C236.285 24.8773 235.522 25.064 234.658 25.064ZM234.658 23.624C235.213 23.624 235.703 23.496 236.13 23.24C236.557 22.984 236.887 22.632 237.122 22.184C237.367 21.736 237.49 21.2187 237.49 20.632C237.49 20.0453 237.367 19.528 237.122 19.08C236.887 18.6213 236.557 18.264 236.13 18.008C235.703 17.752 235.213 17.624 234.658 17.624C234.103 17.624 233.613 17.752 233.186 18.008C232.759 18.264 232.423 18.6213 232.178 19.08C231.933 19.528 231.81 20.0453 231.81 20.632C231.81 21.2187 231.933 21.736 232.178 22.184C232.423 22.632 232.759 22.984 233.186 23.24C233.613 23.496 234.103 23.624 234.658 23.624ZM242.303 25.016C242.068 25.016 241.871 24.9413 241.711 24.792C241.562 24.632 241.487 24.4347 241.487 24.2V17.064C241.487 16.8187 241.562 16.6213 241.711 16.472C241.871 16.3227 242.068 16.248 242.303 16.248C242.548 16.248 242.746 16.3227 242.895 16.472C243.044 16.6213 243.119 16.8187 243.119 17.064V17.24C243.45 16.9093 243.85 16.648 244.319 16.456C244.788 16.264 245.295 16.168 245.839 16.168C246.575 16.168 247.231 16.328 247.807 16.648C248.394 16.9573 248.852 17.416 249.183 18.024C249.524 18.632 249.695 19.3787 249.695 20.264V24.2C249.695 24.4347 249.615 24.632 249.455 24.792C249.306 24.9413 249.114 25.016 248.879 25.016C248.644 25.016 248.447 24.9413 248.287 24.792C248.138 24.632 248.063 24.4347 248.063 24.2V20.264C248.063 19.3573 247.818 18.696 247.327 18.28C246.847 17.8533 246.244 17.64 245.519 17.64C245.071 17.64 244.666 17.7307 244.303 17.912C243.94 18.0933 243.652 18.3387 243.439 18.648C243.226 18.9467 243.119 19.2933 243.119 19.688V24.2C243.119 24.4347 243.044 24.632 242.895 24.792C242.746 24.9413 242.548 25.016 242.303 25.016ZM256.361 25.064C255.529 25.064 254.777 24.872 254.105 24.488C253.444 24.0933 252.916 23.56 252.521 22.888C252.137 22.216 251.945 21.4587 251.945 20.616C251.945 19.7733 252.121 19.0213 252.473 18.36C252.836 17.688 253.326 17.16 253.945 16.776C254.564 16.3813 255.262 16.184 256.041 16.184C256.67 16.184 257.252 16.3173 257.785 16.584C258.318 16.84 258.766 17.192 259.129 17.64V13.32C259.129 13.0747 259.204 12.8773 259.353 12.728C259.513 12.5787 259.71 12.504 259.945 12.504C260.19 12.504 260.388 12.5787 260.537 12.728C260.686 12.8773 260.761 13.0747 260.761 13.32V20.616C260.761 21.4587 260.564 22.216 260.169 22.888C259.785 23.56 259.262 24.0933 258.601 24.488C257.94 24.872 257.193 25.064 256.361 25.064ZM256.361 23.624C256.905 23.624 257.39 23.496 257.817 23.24C258.244 22.9733 258.58 22.6107 258.825 22.152C259.07 21.6933 259.193 21.1813 259.193 20.616C259.193 20.04 259.07 19.528 258.825 19.08C258.58 18.632 258.244 18.28 257.817 18.024C257.39 17.7573 256.905 17.624 256.361 17.624C255.828 17.624 255.342 17.7573 254.905 18.024C254.478 18.28 254.137 18.632 253.881 19.08C253.636 19.528 253.513 20.04 253.513 20.616C253.513 21.1813 253.636 21.6933 253.881 22.152C254.137 22.6107 254.478 22.9733 254.905 23.24C255.342 23.496 255.828 23.624 256.361 23.624ZM267.291 25.064C266.512 25.064 265.814 24.872 265.195 24.488C264.576 24.0933 264.086 23.5653 263.723 22.904C263.371 22.232 263.195 21.4747 263.195 20.632C263.195 19.7893 263.387 19.032 263.771 18.36C264.166 17.688 264.694 17.16 265.355 16.776C266.027 16.3813 266.779 16.184 267.611 16.184C268.443 16.184 269.19 16.3813 269.851 16.776C270.512 17.16 271.035 17.688 271.419 18.36C271.814 19.032 272.011 19.7893 272.011 20.632V24.2C272.011 24.4347 271.931 24.632 271.771 24.792C271.622 24.9413 271.43 25.016 271.195 25.016C270.96 25.016 270.763 24.9413 270.603 24.792C270.454 24.632 270.379 24.4347 270.379 24.2V23.608C270.006 24.056 269.552 24.4133 269.019 24.68C268.496 24.936 267.92 25.064 267.291 25.064ZM267.611 23.624C268.155 23.624 268.64 23.496 269.067 23.24C269.494 22.9733 269.83 22.616 270.075 22.168C270.32 21.7093 270.443 21.1973 270.443 20.632C270.443 20.056 270.32 19.544 270.075 19.096C269.83 18.6373 269.494 18.28 269.067 18.024C268.64 17.7573 268.155 17.624 267.611 17.624C267.078 17.624 266.592 17.7573 266.155 18.024C265.728 18.28 265.387 18.6373 265.131 19.096C264.886 19.544 264.763 20.056 264.763 20.632C264.763 21.1973 264.886 21.7093 265.131 22.168C265.387 22.616 265.728 22.9733 266.155 23.24C266.592 23.496 267.078 23.624 267.611 23.624ZM275.24 25C274.707 25 274.44 24.7333 274.44 24.2V17.048C274.44 16.5147 274.707 16.248 275.24 16.248C275.773 16.248 276.04 16.5147 276.04 17.048V17.352C276.36 16.9787 276.749 16.6853 277.208 16.472C277.677 16.2587 278.184 16.152 278.728 16.152C279.368 16.152 279.843 16.2587 280.152 16.472C280.472 16.6747 280.595 16.92 280.52 17.208C280.467 17.432 280.36 17.5813 280.2 17.656C280.04 17.72 279.853 17.7307 279.64 17.688C278.957 17.5493 278.344 17.5387 277.8 17.656C277.256 17.7733 276.824 17.992 276.504 18.312C276.195 18.632 276.04 19.0373 276.04 19.528V24.2C276.04 24.7333 275.773 25 275.24 25ZM283.789 28.84C283.683 28.84 283.555 28.808 283.405 28.744C282.936 28.5307 282.808 28.1947 283.021 27.736L284.621 24.136L281.021 17.304C280.915 17.1013 280.899 16.9093 280.973 16.728C281.059 16.536 281.203 16.3973 281.405 16.312C281.608 16.2267 281.8 16.2213 281.981 16.296C282.163 16.36 282.301 16.4933 282.397 16.696L285.325 22.52L287.901 16.712C288.115 16.264 288.451 16.136 288.909 16.328C289.389 16.5307 289.523 16.8667 289.309 17.336L284.413 28.344C284.285 28.6747 284.077 28.84 283.789 28.84Z" fill="#1A1A1A"/>
<path d="M369.104 25C368.805 25 368.576 24.872 368.416 24.616C368.256 24.36 368.24 24.088 368.368 23.8L372.864 13.064C373.024 12.6907 373.285 12.504 373.648 12.504C374.032 12.504 374.293 12.6907 374.432 13.064L378.944 23.832C379.061 24.1307 379.04 24.4027 378.88 24.648C378.731 24.8827 378.501 25 378.192 25C378.032 25 377.877 24.9573 377.728 24.872C377.589 24.776 377.488 24.648 377.424 24.488L376.528 22.248H370.784L369.872 24.488C369.797 24.6587 369.685 24.7867 369.536 24.872C369.397 24.9573 369.253 25 369.104 25ZM371.344 20.872H375.968L373.68 15.176L371.344 20.872ZM382.77 25C382.301 25 381.885 24.872 381.522 24.616C381.159 24.36 380.877 24.0133 380.674 23.576C380.471 23.128 380.37 22.616 380.37 22.04V13.304C380.37 13.0693 380.445 12.8773 380.594 12.728C380.743 12.5787 380.935 12.504 381.17 12.504C381.405 12.504 381.597 12.5787 381.746 12.728C381.895 12.8773 381.97 13.0693 381.97 13.304V22.04C381.97 22.4347 382.045 22.76 382.194 23.016C382.343 23.272 382.535 23.4 382.77 23.4H383.17C383.383 23.4 383.554 23.4747 383.682 23.624C383.821 23.7733 383.89 23.9653 383.89 24.2C383.89 24.4347 383.789 24.6267 383.586 24.776C383.383 24.9253 383.122 25 382.802 25H382.77ZM388.671 25C388.138 25 387.658 24.8667 387.231 24.6C386.804 24.3227 386.468 23.9493 386.223 23.48C385.978 23.0107 385.855 22.4827 385.855 21.896V17.944H385.119C384.895 17.944 384.714 17.88 384.575 17.752C384.436 17.624 384.367 17.464 384.367 17.272C384.367 17.0587 384.436 16.888 384.575 16.76C384.714 16.632 384.895 16.568 385.119 16.568H385.855V14.264C385.855 14.0293 385.93 13.8373 386.079 13.688C386.228 13.5387 386.42 13.464 386.655 13.464C386.89 13.464 387.082 13.5387 387.231 13.688C387.38 13.8373 387.455 14.0293 387.455 14.264V16.568H388.815C389.039 16.568 389.22 16.632 389.359 16.76C389.498 16.888 389.567 17.0587 389.567 17.272C389.567 17.464 389.498 17.624 389.359 17.752C389.22 17.88 389.039 17.944 388.815 17.944H387.455V21.896C387.455 22.3227 387.572 22.68 387.807 22.968C388.042 23.256 388.33 23.4 388.671 23.4H389.215C389.407 23.4 389.567 23.4747 389.695 23.624C389.834 23.7733 389.903 23.9653 389.903 24.2C389.903 24.4347 389.812 24.6267 389.631 24.776C389.46 24.9253 389.236 25 388.959 25H388.671ZM396.021 25.064C395.135 25.064 394.346 24.8773 393.653 24.504C392.97 24.12 392.431 23.5973 392.037 22.936C391.653 22.264 391.461 21.496 391.461 20.632C391.461 19.7573 391.642 18.9893 392.005 18.328C392.378 17.656 392.89 17.1333 393.541 16.76C394.191 16.376 394.938 16.184 395.781 16.184C396.613 16.184 397.327 16.3707 397.925 16.744C398.522 17.1067 398.975 17.6133 399.285 18.264C399.605 18.904 399.765 19.6453 399.765 20.488C399.765 20.6907 399.695 20.8613 399.557 21C399.418 21.128 399.242 21.192 399.029 21.192H392.949C393.066 21.928 393.402 22.5307 393.957 23C394.522 23.4587 395.21 23.688 396.021 23.688C396.351 23.688 396.687 23.6293 397.029 23.512C397.381 23.384 397.663 23.24 397.877 23.08C398.037 22.9627 398.207 22.904 398.389 22.904C398.581 22.8933 398.746 22.9467 398.885 23.064C399.066 23.224 399.162 23.4 399.173 23.592C399.183 23.784 399.098 23.9493 398.917 24.088C398.554 24.376 398.101 24.6107 397.557 24.792C397.023 24.9733 396.511 25.064 396.021 25.064ZM395.781 17.56C394.991 17.56 394.357 17.7787 393.877 18.216C393.397 18.6533 393.093 19.2187 392.965 19.912H398.293C398.197 19.2293 397.935 18.6693 397.509 18.232C397.082 17.784 396.506 17.56 395.781 17.56ZM402.646 25C402.113 25 401.846 24.7333 401.846 24.2V17.048C401.846 16.5147 402.113 16.248 402.646 16.248C403.18 16.248 403.446 16.5147 403.446 17.048V17.352C403.766 16.9787 404.156 16.6853 404.614 16.472C405.084 16.2587 405.59 16.152 406.134 16.152C406.774 16.152 407.249 16.2587 407.558 16.472C407.878 16.6747 408.001 16.92 407.926 17.208C407.873 17.432 407.766 17.5813 407.606 17.656C407.446 17.72 407.26 17.7307 407.046 17.688C406.364 17.5493 405.75 17.5387 405.206 17.656C404.662 17.7733 404.23 17.992 403.91 18.312C403.601 18.632 403.446 19.0373 403.446 19.528V24.2C403.446 24.7333 403.18 25 402.646 25ZM410.444 25.016C410.209 25.016 410.012 24.9413 409.852 24.792C409.702 24.632 409.628 24.4347 409.628 24.2V17.064C409.628 16.8187 409.702 16.6213 409.852 16.472C410.012 16.3227 410.209 16.248 410.444 16.248C410.689 16.248 410.886 16.3227 411.036 16.472C411.185 16.6213 411.26 16.8187 411.26 17.064V17.24C411.59 16.9093 411.99 16.648 412.46 16.456C412.929 16.264 413.436 16.168 413.98 16.168C414.716 16.168 415.372 16.328 415.948 16.648C416.534 16.9573 416.993 17.416 417.324 18.024C417.665 18.632 417.836 19.3787 417.836 20.264V24.2C417.836 24.4347 417.756 24.632 417.595 24.792C417.446 24.9413 417.254 25.016 417.02 25.016C416.785 25.016 416.588 24.9413 416.428 24.792C416.278 24.632 416.204 24.4347 416.204 24.2V20.264C416.204 19.3573 415.958 18.696 415.468 18.28C414.988 17.8533 414.385 17.64 413.66 17.64C413.212 17.64 412.806 17.7307 412.444 17.912C412.081 18.0933 411.793 18.3387 411.58 18.648C411.366 18.9467 411.26 19.2933 411.26 19.688V24.2C411.26 24.4347 411.185 24.632 411.036 24.792C410.886 24.9413 410.689 25.016 410.444 25.016ZM424.182 25.064C423.403 25.064 422.704 24.872 422.086 24.488C421.467 24.0933 420.976 23.5653 420.614 22.904C420.262 22.232 420.086 21.4747 420.086 20.632C420.086 19.7893 420.278 19.032 420.662 18.36C421.056 17.688 421.584 17.16 422.246 16.776C422.918 16.3813 423.67 16.184 424.502 16.184C425.334 16.184 426.08 16.3813 426.742 16.776C427.403 17.16 427.926 17.688 428.31 18.36C428.704 19.032 428.902 19.7893 428.902 20.632V24.2C428.902 24.4347 428.822 24.632 428.662 24.792C428.512 24.9413 428.32 25.016 428.086 25.016C427.851 25.016 427.654 24.9413 427.494 24.792C427.344 24.632 427.27 24.4347 427.27 24.2V23.608C426.896 24.056 426.443 24.4133 425.91 24.68C425.387 24.936 424.811 25.064 424.182 25.064ZM424.502 23.624C425.046 23.624 425.531 23.496 425.958 23.24C426.384 22.9733 426.72 22.616 426.966 22.168C427.211 21.7093 427.334 21.1973 427.334 20.632C427.334 20.056 427.211 19.544 426.966 19.096C426.72 18.6373 426.384 18.28 425.958 18.024C425.531 17.7573 425.046 17.624 424.502 17.624C423.968 17.624 423.483 17.7573 423.046 18.024C422.619 18.28 422.278 18.6373 422.022 19.096C421.776 19.544 421.654 20.056 421.654 20.632C421.654 21.1973 421.776 21.7093 422.022 22.168C422.278 22.616 422.619 22.9733 423.046 23.24C423.483 23.496 423.968 23.624 424.502 23.624ZM434.515 25C433.981 25 433.501 24.8667 433.075 24.6C432.648 24.3227 432.312 23.9493 432.067 23.48C431.821 23.0107 431.699 22.4827 431.699 21.896V17.944H430.963C430.739 17.944 430.557 17.88 430.419 17.752C430.28 17.624 430.211 17.464 430.211 17.272C430.211 17.0587 430.28 16.888 430.419 16.76C430.557 16.632 430.739 16.568 430.963 16.568H431.699V14.264C431.699 14.0293 431.773 13.8373 431.923 13.688C432.072 13.5387 432.264 13.464 432.499 13.464C432.733 13.464 432.925 13.5387 433.075 13.688C433.224 13.8373 433.299 14.0293 433.299 14.264V16.568H434.659C434.883 16.568 435.064 16.632 435.203 16.76C435.341 16.888 435.411 17.0587 435.411 17.272C435.411 17.464 435.341 17.624 435.203 17.752C435.064 17.88 434.883 17.944 434.659 17.944H433.299V21.896C433.299 22.3227 433.416 22.68 433.651 22.968C433.885 23.256 434.173 23.4 434.515 23.4H435.059C435.251 23.4 435.411 23.4747 435.539 23.624C435.677 23.7733 435.747 23.9653 435.747 24.2C435.747 24.4347 435.656 24.6267 435.475 24.776C435.304 24.9253 435.08 25 434.803 25H434.515ZM441.865 25.064C440.979 25.064 440.19 24.8773 439.497 24.504C438.814 24.12 438.275 23.5973 437.881 22.936C437.497 22.264 437.305 21.496 437.305 20.632C437.305 19.7573 437.486 18.9893 437.849 18.328C438.222 17.656 438.734 17.1333 439.385 16.76C440.035 16.376 440.782 16.184 441.625 16.184C442.457 16.184 443.171 16.3707 443.769 16.744C444.366 17.1067 444.819 17.6133 445.128 18.264C445.449 18.904 445.609 19.6453 445.609 20.488C445.609 20.6907 445.539 20.8613 445.401 21C445.262 21.128 445.086 21.192 444.873 21.192H438.793C438.91 21.928 439.246 22.5307 439.801 23C440.366 23.4587 441.054 23.688 441.865 23.688C442.195 23.688 442.531 23.6293 442.873 23.512C443.225 23.384 443.507 23.24 443.721 23.08C443.881 22.9627 444.051 22.904 444.233 22.904C444.425 22.8933 444.59 22.9467 444.729 23.064C444.91 23.224 445.006 23.4 445.017 23.592C445.027 23.784 444.942 23.9493 444.76 24.088C444.398 24.376 443.945 24.6107 443.401 24.792C442.867 24.9733 442.355 25.064 441.865 25.064ZM441.625 17.56C440.835 17.56 440.201 17.7787 439.721 18.216C439.241 18.6533 438.937 19.2187 438.809 19.912H444.137C444.041 19.2293 443.779 18.6693 443.353 18.232C442.926 17.784 442.35 17.56 441.625 17.56Z" fill="#1A1A1A"/>
<path d="M368 27H446.249V27.8H368V27Z" fill="#1A1A1A"/>
<path d="M369.104 233C368.805 233 368.576 232.872 368.416 232.616C368.256 232.36 368.24 232.088 368.368 231.8L372.864 221.064C373.024 220.691 373.285 220.504 373.648 220.504C374.032 220.504 374.293 220.691 374.432 221.064L378.944 231.832C379.061 232.131 379.04 232.403 378.88 232.648C378.731 232.883 378.501 233 378.192 233C378.032 233 377.877 232.957 377.728 232.872C377.589 232.776 377.488 232.648 377.424 232.488L376.528 230.248H370.784L369.872 232.488C369.797 232.659 369.685 232.787 369.536 232.872C369.397 232.957 369.253 233 369.104 233ZM371.344 228.872H375.968L373.68 223.176L371.344 228.872ZM382.77 233C382.301 233 381.885 232.872 381.522 232.616C381.159 232.36 380.877 232.013 380.674 231.576C380.471 231.128 380.37 230.616 380.37 230.04V221.304C380.37 221.069 380.445 220.877 380.594 220.728C380.743 220.579 380.935 220.504 381.17 220.504C381.405 220.504 381.597 220.579 381.746 220.728C381.895 220.877 381.97 221.069 381.97 221.304V230.04C381.97 230.435 382.045 230.76 382.194 231.016C382.343 231.272 382.535 231.4 382.77 231.4H383.17C383.383 231.4 383.554 231.475 383.682 231.624C383.821 231.773 383.89 231.965 383.89 232.2C383.89 232.435 383.789 232.627 383.586 232.776C383.383 232.925 383.122 233 382.802 233H382.77ZM388.671 233C388.138 233 387.658 232.867 387.231 232.6C386.804 232.323 386.468 231.949 386.223 231.48C385.978 231.011 385.855 230.483 385.855 229.896V225.944H385.119C384.895 225.944 384.714 225.88 384.575 225.752C384.436 225.624 384.367 225.464 384.367 225.272C384.367 225.059 384.436 224.888 384.575 224.76C384.714 224.632 384.895 224.568 385.119 224.568H385.855V222.264C385.855 222.029 385.93 221.837 386.079 221.688C386.228 221.539 386.42 221.464 386.655 221.464C386.89 221.464 387.082 221.539 387.231 221.688C387.38 221.837 387.455 222.029 387.455 222.264V224.568H388.815C389.039 224.568 389.22 224.632 389.359 224.76C389.498 224.888 389.567 225.059 389.567 225.272C389.567 225.464 389.498 225.624 389.359 225.752C389.22 225.88 389.039 225.944 388.815 225.944H387.455V229.896C387.455 230.323 387.572 230.68 387.807 230.968C388.042 231.256 388.33 231.4 388.671 231.4H389.215C389.407 231.4 389.567 231.475 389.695 231.624C389.834 231.773 389.903 231.965 389.903 232.2C389.903 232.435 389.812 232.627 389.631 232.776C389.46 232.925 389.236 233 388.959 233H388.671ZM396.021 233.064C395.135 233.064 394.346 232.877 393.653 232.504C392.97 232.12 392.431 231.597 392.037 230.936C391.653 230.264 391.461 229.496 391.461 228.632C391.461 227.757 391.642 226.989 392.005 226.328C392.378 225.656 392.89 225.133 393.541 224.76C394.191 224.376 394.938 224.184 395.781 224.184C396.613 224.184 397.327 224.371 397.925 224.744C398.522 225.107 398.975 225.613 399.285 226.264C399.605 226.904 399.765 227.645 399.765 228.488C399.765 228.691 399.695 228.861 399.557 229C399.418 229.128 399.242 229.192 399.029 229.192H392.949C393.066 229.928 393.402 230.531 393.957 231C394.522 231.459 395.21 231.688 396.021 231.688C396.351 231.688 396.687 231.629 397.029 231.512C397.381 231.384 397.663 231.24 397.877 231.08C398.037 230.963 398.207 230.904 398.389 230.904C398.581 230.893 398.746 230.947 398.885 231.064C399.066 231.224 399.162 231.4 399.173 231.592C399.183 231.784 399.098 231.949 398.917 232.088C398.554 232.376 398.101 232.611 397.557 232.792C397.023 232.973 396.511 233.064 396.021 233.064ZM395.781 225.56C394.991 225.56 394.357 225.779 393.877 226.216C393.397 226.653 393.093 227.219 392.965 227.912H398.293C398.197 227.229 397.935 226.669 397.509 226.232C397.082 225.784 396.506 225.56 395.781 225.56ZM402.646 233C402.113 233 401.846 232.733 401.846 232.2V225.048C401.846 224.515 402.113 224.248 402.646 224.248C403.18 224.248 403.446 224.515 403.446 225.048V225.352C403.766 224.979 404.156 224.685 404.614 224.472C405.084 224.259 405.59 224.152 406.134 224.152C406.774 224.152 407.249 224.259 407.558 224.472C407.878 224.675 408.001 224.92 407.926 225.208C407.873 225.432 407.766 225.581 407.606 225.656C407.446 225.72 407.26 225.731 407.046 225.688C406.364 225.549 405.75 225.539 405.206 225.656C404.662 225.773 404.23 225.992 403.91 226.312C403.601 226.632 403.446 227.037 403.446 227.528V232.2C403.446 232.733 403.18 233 402.646 233ZM410.444 233.016C410.209 233.016 410.012 232.941 409.852 232.792C409.702 232.632 409.628 232.435 409.628 232.2V225.064C409.628 224.819 409.702 224.621 409.852 224.472C410.012 224.323 410.209 224.248 410.444 224.248C410.689 224.248 410.886 224.323 411.036 224.472C411.185 224.621 411.26 224.819 411.26 225.064V225.24C411.59 224.909 411.99 224.648 412.46 224.456C412.929 224.264 413.436 224.168 413.98 224.168C414.716 224.168 415.372 224.328 415.948 224.648C416.534 224.957 416.993 225.416 417.324 226.024C417.665 226.632 417.836 227.379 417.836 228.264V232.2C417.836 232.435 417.756 232.632 417.595 232.792C417.446 232.941 417.254 233.016 417.02 233.016C416.785 233.016 416.588 232.941 416.428 232.792C416.278 232.632 416.204 232.435 416.204 232.2V228.264C416.204 227.357 415.958 226.696 415.468 226.28C414.988 225.853 414.385 225.64 413.66 225.64C413.212 225.64 412.806 225.731 412.444 225.912C412.081 226.093 411.793 226.339 411.58 226.648C411.366 226.947 411.26 227.293 411.26 227.688V232.2C411.26 232.435 411.185 232.632 411.036 232.792C410.886 232.941 410.689 233.016 410.444 233.016ZM424.182 233.064C423.403 233.064 422.704 232.872 422.086 232.488C421.467 232.093 420.976 231.565 420.614 230.904C420.262 230.232 420.086 229.475 420.086 228.632C420.086 227.789 420.278 227.032 420.662 226.36C421.056 225.688 421.584 225.16 422.246 224.776C422.918 224.381 423.67 224.184 424.502 224.184C425.334 224.184 426.08 224.381 426.742 224.776C427.403 225.16 427.926 225.688 428.31 226.36C428.704 227.032 428.902 227.789 428.902 228.632V232.2C428.902 232.435 428.822 232.632 428.662 232.792C428.512 232.941 428.32 233.016 428.086 233.016C427.851 233.016 427.654 232.941 427.494 232.792C427.344 232.632 427.27 232.435 427.27 232.2V231.608C426.896 232.056 426.443 232.413 425.91 232.68C425.387 232.936 424.811 233.064 424.182 233.064ZM424.502 231.624C425.046 231.624 425.531 231.496 425.958 231.24C426.384 230.973 426.72 230.616 426.966 230.168C427.211 229.709 427.334 229.197 427.334 228.632C427.334 228.056 427.211 227.544 426.966 227.096C426.72 226.637 426.384 226.28 425.958 226.024C425.531 225.757 425.046 225.624 424.502 225.624C423.968 225.624 423.483 225.757 423.046 226.024C422.619 226.28 422.278 226.637 422.022 227.096C421.776 227.544 421.654 228.056 421.654 228.632C421.654 229.197 421.776 229.709 422.022 230.168C422.278 230.616 422.619 230.973 423.046 231.24C423.483 231.496 423.968 231.624 424.502 231.624ZM434.515 233C433.981 233 433.501 232.867 433.075 232.6C432.648 232.323 432.312 231.949 432.067 231.48C431.821 231.011 431.699 230.483 431.699 229.896V225.944H430.963C430.739 225.944 430.557 225.88 430.419 225.752C430.28 225.624 430.211 225.464 430.211 225.272C430.211 225.059 430.28 224.888 430.419 224.76C430.557 224.632 430.739 224.568 430.963 224.568H431.699V222.264C431.699 222.029 431.773 221.837 431.923 221.688C432.072 221.539 432.264 221.464 432.499 221.464C432.733 221.464 432.925 221.539 433.075 221.688C433.224 221.837 433.299 222.029 433.299 222.264V224.568H434.659C434.883 224.568 435.064 224.632 435.203 224.76C435.341 224.888 435.411 225.059 435.411 225.272C435.411 225.464 435.341 225.624 435.203 225.752C435.064 225.88 434.883 225.944 434.659 225.944H433.299V229.896C433.299 230.323 433.416 230.68 433.651 230.968C433.885 231.256 434.173 231.4 434.515 231.4H435.059C435.251 231.4 435.411 231.475 435.539 231.624C435.677 231.773 435.747 231.965 435.747 232.2C435.747 232.435 435.656 232.627 435.475 232.776C435.304 232.925 435.08 233 434.803 233H434.515ZM441.865 233.064C440.979 233.064 440.19 232.877 439.497 232.504C438.814 232.12 438.275 231.597 437.881 230.936C437.497 230.264 437.305 229.496 437.305 228.632C437.305 227.757 437.486 226.989 437.849 226.328C438.222 225.656 438.734 225.133 439.385 224.76C440.035 224.376 440.782 224.184 441.625 224.184C442.457 224.184 443.171 224.371 443.769 224.744C444.366 225.107 444.819 225.613 445.128 226.264C445.449 226.904 445.609 227.645 445.609 228.488C445.609 228.691 445.539 228.861 445.401 229C445.262 229.128 445.086 229.192 444.873 229.192H438.793C438.91 229.928 439.246 230.531 439.801 231C440.366 231.459 441.054 231.688 441.865 231.688C442.195 231.688 442.531 231.629 442.873 231.512C443.225 231.384 443.507 231.24 443.721 231.08C443.881 230.963 444.051 230.904 444.233 230.904C444.425 230.893 444.59 230.947 444.729 231.064C444.91 231.224 445.006 231.4 445.017 231.592C445.027 231.784 444.942 231.949 444.76 232.088C444.398 232.376 443.945 232.611 443.401 232.792C442.867 232.973 442.355 233.064 441.865 233.064ZM441.625 225.56C440.835 225.56 440.201 225.779 439.721 226.216C439.241 226.653 438.937 227.219 438.809 227.912H444.137C444.041 227.229 443.779 226.669 443.353 226.232C442.926 225.784 442.35 225.56 441.625 225.56Z" fill="#2D8BBA"/>
<path d="M368 235H446.249V235.8H368V235Z" fill="#2D8BBA"/>
<path d="M369.104 129C368.805 129 368.576 128.872 368.416 128.616C368.256 128.36 368.24 128.088 368.368 127.8L372.864 117.064C373.024 116.691 373.285 116.504 373.648 116.504C374.032 116.504 374.293 116.691 374.432 117.064L378.944 127.832C379.061 128.131 379.04 128.403 378.88 128.648C378.731 128.883 378.501 129 378.192 129C378.032 129 377.877 128.957 377.728 128.872C377.589 128.776 377.488 128.648 377.424 128.488L376.528 126.248H370.784L369.872 128.488C369.797 128.659 369.685 128.787 369.536 128.872C369.397 128.957 369.253 129 369.104 129ZM371.344 124.872H375.968L373.68 119.176L371.344 124.872ZM382.77 129C382.301 129 381.885 128.872 381.522 128.616C381.159 128.36 380.877 128.013 380.674 127.576C380.471 127.128 380.37 126.616 380.37 126.04V117.304C380.37 117.069 380.445 116.877 380.594 116.728C380.743 116.579 380.935 116.504 381.17 116.504C381.405 116.504 381.597 116.579 381.746 116.728C381.895 116.877 381.97 117.069 381.97 117.304V126.04C381.97 126.435 382.045 126.76 382.194 127.016C382.343 127.272 382.535 127.4 382.77 127.4H383.17C383.383 127.4 383.554 127.475 383.682 127.624C383.821 127.773 383.89 127.965 383.89 128.2C383.89 128.435 383.789 128.627 383.586 128.776C383.383 128.925 383.122 129 382.802 129H382.77ZM388.671 129C388.138 129 387.658 128.867 387.231 128.6C386.804 128.323 386.468 127.949 386.223 127.48C385.978 127.011 385.855 126.483 385.855 125.896V121.944H385.119C384.895 121.944 384.714 121.88 384.575 121.752C384.436 121.624 384.367 121.464 384.367 121.272C384.367 121.059 384.436 120.888 384.575 120.76C384.714 120.632 384.895 120.568 385.119 120.568H385.855V118.264C385.855 118.029 385.93 117.837 386.079 117.688C386.228 117.539 386.42 117.464 386.655 117.464C386.89 117.464 387.082 117.539 387.231 117.688C387.38 117.837 387.455 118.029 387.455 118.264V120.568H388.815C389.039 120.568 389.22 120.632 389.359 120.76C389.498 120.888 389.567 121.059 389.567 121.272C389.567 121.464 389.498 121.624 389.359 121.752C389.22 121.88 389.039 121.944 388.815 121.944H387.455V125.896C387.455 126.323 387.572 126.68 387.807 126.968C388.042 127.256 388.33 127.4 388.671 127.4H389.215C389.407 127.4 389.567 127.475 389.695 127.624C389.834 127.773 389.903 127.965 389.903 128.2C389.903 128.435 389.812 128.627 389.631 128.776C389.46 128.925 389.236 129 388.959 129H388.671ZM396.021 129.064C395.135 129.064 394.346 128.877 393.653 128.504C392.97 128.12 392.431 127.597 392.037 126.936C391.653 126.264 391.461 125.496 391.461 124.632C391.461 123.757 391.642 122.989 392.005 122.328C392.378 121.656 392.89 121.133 393.541 120.76C394.191 120.376 394.938 120.184 395.781 120.184C396.613 120.184 397.327 120.371 397.925 120.744C398.522 121.107 398.975 121.613 399.285 122.264C399.605 122.904 399.765 123.645 399.765 124.488C399.765 124.691 399.695 124.861 399.557 125C399.418 125.128 399.242 125.192 399.029 125.192H392.949C393.066 125.928 393.402 126.531 393.957 127C394.522 127.459 395.21 127.688 396.021 127.688C396.351 127.688 396.687 127.629 397.029 127.512C397.381 127.384 397.663 127.24 397.877 127.08C398.037 126.963 398.207 126.904 398.389 126.904C398.581 126.893 398.746 126.947 398.885 127.064C399.066 127.224 399.162 127.4 399.173 127.592C399.183 127.784 399.098 127.949 398.917 128.088C398.554 128.376 398.101 128.611 397.557 128.792C397.023 128.973 396.511 129.064 396.021 129.064ZM395.781 121.56C394.991 121.56 394.357 121.779 393.877 122.216C393.397 122.653 393.093 123.219 392.965 123.912H398.293C398.197 123.229 397.935 122.669 397.509 122.232C397.082 121.784 396.506 121.56 395.781 121.56ZM402.646 129C402.113 129 401.846 128.733 401.846 128.2V121.048C401.846 120.515 402.113 120.248 402.646 120.248C403.18 120.248 403.446 120.515 403.446 121.048V121.352C403.766 120.979 404.156 120.685 404.614 120.472C405.084 120.259 405.59 120.152 406.134 120.152C406.774 120.152 407.249 120.259 407.558 120.472C407.878 120.675 408.001 120.92 407.926 121.208C407.873 121.432 407.766 121.581 407.606 121.656C407.446 121.72 407.26 121.731 407.046 121.688C406.364 121.549 405.75 121.539 405.206 121.656C404.662 121.773 404.23 121.992 403.91 122.312C403.601 122.632 403.446 123.037 403.446 123.528V128.2C403.446 128.733 403.18 129 402.646 129ZM410.444 129.016C410.209 129.016 410.012 128.941 409.852 128.792C409.702 128.632 409.628 128.435 409.628 128.2V121.064C409.628 120.819 409.702 120.621 409.852 120.472C410.012 120.323 410.209 120.248 410.444 120.248C410.689 120.248 410.886 120.323 411.036 120.472C411.185 120.621 411.26 120.819 411.26 121.064V121.24C411.59 120.909 411.99 120.648 412.46 120.456C412.929 120.264 413.436 120.168 413.98 120.168C414.716 120.168 415.372 120.328 415.948 120.648C416.534 120.957 416.993 121.416 417.324 122.024C417.665 122.632 417.836 123.379 417.836 124.264V128.2C417.836 128.435 417.756 128.632 417.595 128.792C417.446 128.941 417.254 129.016 417.02 129.016C416.785 129.016 416.588 128.941 416.428 128.792C416.278 128.632 416.204 128.435 416.204 128.2V124.264C416.204 123.357 415.958 122.696 415.468 122.28C414.988 121.853 414.385 121.64 413.66 121.64C413.212 121.64 412.806 121.731 412.444 121.912C412.081 122.093 411.793 122.339 411.58 122.648C411.366 122.947 411.26 123.293 411.26 123.688V128.2C411.26 128.435 411.185 128.632 411.036 128.792C410.886 128.941 410.689 129.016 410.444 129.016ZM424.182 129.064C423.403 129.064 422.704 128.872 422.086 128.488C421.467 128.093 420.976 127.565 420.614 126.904C420.262 126.232 420.086 125.475 420.086 124.632C420.086 123.789 420.278 123.032 420.662 122.36C421.056 121.688 421.584 121.16 422.246 120.776C422.918 120.381 423.67 120.184 424.502 120.184C425.334 120.184 426.08 120.381 426.742 120.776C427.403 121.16 427.926 121.688 428.31 122.36C428.704 123.032 428.902 123.789 428.902 124.632V128.2C428.902 128.435 428.822 128.632 428.662 128.792C428.512 128.941 428.32 129.016 428.086 129.016C427.851 129.016 427.654 128.941 427.494 128.792C427.344 128.632 427.27 128.435 427.27 128.2V127.608C426.896 128.056 426.443 128.413 425.91 128.68C425.387 128.936 424.811 129.064 424.182 129.064ZM424.502 127.624C425.046 127.624 425.531 127.496 425.958 127.24C426.384 126.973 426.72 126.616 426.966 126.168C427.211 125.709 427.334 125.197 427.334 124.632C427.334 124.056 427.211 123.544 426.966 123.096C426.72 122.637 426.384 122.28 425.958 122.024C425.531 121.757 425.046 121.624 424.502 121.624C423.968 121.624 423.483 121.757 423.046 122.024C422.619 122.28 422.278 122.637 422.022 123.096C421.776 123.544 421.654 124.056 421.654 124.632C421.654 125.197 421.776 125.709 422.022 126.168C422.278 126.616 422.619 126.973 423.046 127.24C423.483 127.496 423.968 127.624 424.502 127.624ZM434.515 129C433.981 129 433.501 128.867 433.075 128.6C432.648 128.323 432.312 127.949 432.067 127.48C431.821 127.011 431.699 126.483 431.699 125.896V121.944H430.963C430.739 121.944 430.557 121.88 430.419 121.752C430.28 121.624 430.211 121.464 430.211 121.272C430.211 121.059 430.28 120.888 430.419 120.76C430.557 120.632 430.739 120.568 430.963 120.568H431.699V118.264C431.699 118.029 431.773 117.837 431.923 117.688C432.072 117.539 432.264 117.464 432.499 117.464C432.733 117.464 432.925 117.539 433.075 117.688C433.224 117.837 433.299 118.029 433.299 118.264V120.568H434.659C434.883 120.568 435.064 120.632 435.203 120.76C435.341 120.888 435.411 121.059 435.411 121.272C435.411 121.464 435.341 121.624 435.203 121.752C435.064 121.88 434.883 121.944 434.659 121.944H433.299V125.896C433.299 126.323 433.416 126.68 433.651 126.968C433.885 127.256 434.173 127.4 434.515 127.4H435.059C435.251 127.4 435.411 127.475 435.539 127.624C435.677 127.773 435.747 127.965 435.747 128.2C435.747 128.435 435.656 128.627 435.475 128.776C435.304 128.925 435.08 129 434.803 129H434.515ZM441.865 129.064C440.979 129.064 440.19 128.877 439.497 128.504C438.814 128.12 438.275 127.597 437.881 126.936C437.497 126.264 437.305 125.496 437.305 124.632C437.305 123.757 437.486 122.989 437.849 122.328C438.222 121.656 438.734 121.133 439.385 120.76C440.035 120.376 440.782 120.184 441.625 120.184C442.457 120.184 443.171 120.371 443.769 120.744C444.366 121.107 444.819 121.613 445.128 122.264C445.449 122.904 445.609 123.645 445.609 124.488C445.609 124.691 445.539 124.861 445.401 125C445.262 125.128 445.086 125.192 444.873 125.192H438.793C438.91 125.928 439.246 126.531 439.801 127C440.366 127.459 441.054 127.688 441.865 127.688C442.195 127.688 442.531 127.629 442.873 127.512C443.225 127.384 443.507 127.24 443.721 127.08C443.881 126.963 444.051 126.904 444.233 126.904C444.425 126.893 444.59 126.947 444.729 127.064C444.91 127.224 445.006 127.4 445.017 127.592C445.027 127.784 444.942 127.949 444.76 128.088C444.398 128.376 443.945 128.611 443.401 128.792C442.867 128.973 442.355 129.064 441.865 129.064ZM441.625 121.56C440.835 121.56 440.201 121.779 439.721 122.216C439.241 122.653 438.937 123.219 438.809 123.912H444.137C444.041 123.229 443.779 122.669 443.353 122.232C442.926 121.784 442.35 121.56 441.625 121.56Z" fill="#1A1A1A" fill-opacity="0.6"/>
<path d="M368 131H446.249V131.8H368V131Z" fill="#1A1A1A" fill-opacity="0.6"/>
<rect x="184.5" y="208.5" width="119" height="39" rx="3.5" stroke="#2D8BBA"/>
<path d="M204.568 233.16C203.885 233.16 203.235 233.053 202.616 232.84C201.997 232.627 201.459 232.328 201 231.944C200.541 231.56 200.205 231.117 199.992 230.616C199.885 230.392 199.885 230.184 199.992 229.992C200.109 229.8 200.301 229.677 200.568 229.624C200.76 229.581 200.947 229.613 201.128 229.72C201.32 229.816 201.464 229.965 201.56 230.168C201.688 230.435 201.896 230.68 202.184 230.904C202.483 231.128 202.84 231.309 203.256 231.448C203.672 231.587 204.109 231.656 204.568 231.656C205.08 231.656 205.549 231.576 205.976 231.416C206.413 231.256 206.765 231.027 207.032 230.728C207.299 230.419 207.432 230.04 207.432 229.592C207.432 229.027 207.208 228.52 206.76 228.072C206.323 227.624 205.597 227.347 204.584 227.24C203.261 227.112 202.221 226.723 201.464 226.072C200.707 225.421 200.328 224.616 200.328 223.656C200.328 222.952 200.525 222.355 200.92 221.864C201.315 221.373 201.848 221 202.52 220.744C203.203 220.488 203.96 220.36 204.792 220.36C205.763 220.36 206.557 220.557 207.176 220.952C207.795 221.347 208.307 221.869 208.712 222.52C208.861 222.755 208.92 222.979 208.888 223.192C208.867 223.395 208.765 223.555 208.584 223.672C208.381 223.8 208.163 223.827 207.928 223.752C207.693 223.677 207.517 223.539 207.4 223.336C207.133 222.877 206.787 222.52 206.36 222.264C205.944 222.008 205.405 221.875 204.744 221.864C203.955 221.853 203.293 222.003 202.76 222.312C202.227 222.611 201.96 223.075 201.96 223.704C201.96 224.024 202.04 224.333 202.2 224.632C202.371 224.92 202.675 225.171 203.112 225.384C203.56 225.597 204.2 225.747 205.032 225.832C206.301 225.96 207.288 226.349 207.992 227C208.707 227.64 209.064 228.488 209.064 229.544C209.064 230.152 208.936 230.68 208.68 231.128C208.435 231.576 208.099 231.955 207.672 232.264C207.256 232.563 206.776 232.787 206.232 232.936C205.699 233.085 205.144 233.16 204.568 233.16ZM215.568 233.064C214.682 233.064 213.893 232.877 213.2 232.504C212.517 232.12 211.978 231.597 211.584 230.936C211.2 230.264 211.008 229.496 211.008 228.632C211.008 227.757 211.189 226.989 211.552 226.328C211.925 225.656 212.437 225.133 213.088 224.76C213.738 224.376 214.485 224.184 215.328 224.184C216.16 224.184 216.874 224.371 217.472 224.744C218.069 225.107 218.522 225.613 218.832 226.264C219.152 226.904 219.312 227.645 219.312 228.488C219.312 228.691 219.242 228.861 219.104 229C218.965 229.128 218.789 229.192 218.576 229.192H212.496C212.613 229.928 212.949 230.531 213.504 231C214.069 231.459 214.757 231.688 215.568 231.688C215.898 231.688 216.234 231.629 216.576 231.512C216.928 231.384 217.21 231.24 217.424 231.08C217.584 230.963 217.754 230.904 217.936 230.904C218.128 230.893 218.293 230.947 218.432 231.064C218.613 231.224 218.709 231.4 218.72 231.592C218.73 231.784 218.645 231.949 218.464 232.088C218.101 232.376 217.648 232.611 217.104 232.792C216.57 232.973 216.058 233.064 215.568 233.064ZM215.328 225.56C214.538 225.56 213.904 225.779 213.424 226.216C212.944 226.653 212.64 227.219 212.512 227.912H217.84C217.744 227.229 217.482 226.669 217.056 226.232C216.629 225.784 216.053 225.56 215.328 225.56ZM225.049 233.064C224.195 233.064 223.433 232.872 222.761 232.488C222.099 232.093 221.577 231.565 221.193 230.904C220.819 230.232 220.633 229.475 220.633 228.632C220.633 227.768 220.819 227 221.193 226.328C221.566 225.656 222.078 225.133 222.729 224.76C223.379 224.376 224.126 224.184 224.969 224.184C226.227 224.184 227.273 224.664 228.105 225.624C228.254 225.795 228.307 225.971 228.265 226.152C228.222 226.333 228.105 226.493 227.913 226.632C227.763 226.739 227.598 226.776 227.417 226.744C227.235 226.701 227.07 226.605 226.921 226.456C226.398 225.901 225.747 225.624 224.969 225.624C224.147 225.624 223.481 225.901 222.969 226.456C222.457 227 222.201 227.725 222.201 228.632C222.201 229.208 222.318 229.72 222.553 230.168C222.798 230.616 223.134 230.973 223.561 231.24C223.987 231.496 224.483 231.624 225.049 231.624C225.774 231.624 226.361 231.437 226.809 231.064C226.979 230.925 227.155 230.851 227.337 230.84C227.518 230.819 227.678 230.867 227.817 230.984C227.998 231.133 228.099 231.304 228.121 231.496C228.142 231.677 228.078 231.843 227.929 231.992C227.161 232.707 226.201 233.064 225.049 233.064ZM234.658 233.064C233.794 233.064 233.031 232.877 232.37 232.504C231.709 232.12 231.186 231.597 230.802 230.936C230.429 230.264 230.242 229.496 230.242 228.632C230.242 227.757 230.429 226.989 230.802 226.328C231.186 225.656 231.709 225.133 232.37 224.76C233.031 224.376 233.794 224.184 234.658 224.184C235.511 224.184 236.269 224.376 236.93 224.76C237.591 225.133 238.109 225.656 238.482 226.328C238.866 226.989 239.058 227.757 239.058 228.632C239.058 229.496 238.871 230.264 238.498 230.936C238.125 231.597 237.607 232.12 236.946 232.504C236.285 232.877 235.522 233.064 234.658 233.064ZM234.658 231.624C235.213 231.624 235.703 231.496 236.13 231.24C236.557 230.984 236.887 230.632 237.122 230.184C237.367 229.736 237.49 229.219 237.49 228.632C237.49 228.045 237.367 227.528 237.122 227.08C236.887 226.621 236.557 226.264 236.13 226.008C235.703 225.752 235.213 225.624 234.658 225.624C234.103 225.624 233.613 225.752 233.186 226.008C232.759 226.264 232.423 226.621 232.178 227.08C231.933 227.528 231.81 228.045 231.81 228.632C231.81 229.219 231.933 229.736 232.178 230.184C232.423 230.632 232.759 230.984 233.186 231.24C233.613 231.496 234.103 231.624 234.658 231.624ZM242.303 233.016C242.068 233.016 241.871 232.941 241.711 232.792C241.562 232.632 241.487 232.435 241.487 232.2V225.064C241.487 224.819 241.562 224.621 241.711 224.472C241.871 224.323 242.068 224.248 242.303 224.248C242.548 224.248 242.746 224.323 242.895 224.472C243.044 224.621 243.119 224.819 243.119 225.064V225.24C243.45 224.909 243.85 224.648 244.319 224.456C244.788 224.264 245.295 224.168 245.839 224.168C246.575 224.168 247.231 224.328 247.807 224.648C248.394 224.957 248.852 225.416 249.183 226.024C249.524 226.632 249.695 227.379 249.695 228.264V232.2C249.695 232.435 249.615 232.632 249.455 232.792C249.306 232.941 249.114 233.016 248.879 233.016C248.644 233.016 248.447 232.941 248.287 232.792C248.138 232.632 248.063 232.435 248.063 232.2V228.264C248.063 227.357 247.818 226.696 247.327 226.28C246.847 225.853 246.244 225.64 245.519 225.64C245.071 225.64 244.666 225.731 244.303 225.912C243.94 226.093 243.652 226.339 243.439 226.648C243.226 226.947 243.119 227.293 243.119 227.688V232.2C243.119 232.435 243.044 232.632 242.895 232.792C242.746 232.941 242.548 233.016 242.303 233.016ZM256.361 233.064C255.529 233.064 254.777 232.872 254.105 232.488C253.444 232.093 252.916 231.56 252.521 230.888C252.137 230.216 251.945 229.459 251.945 228.616C251.945 227.773 252.121 227.021 252.473 226.36C252.836 225.688 253.326 225.16 253.945 224.776C254.564 224.381 255.262 224.184 256.041 224.184C256.67 224.184 257.252 224.317 257.785 224.584C258.318 224.84 258.766 225.192 259.129 225.64V221.32C259.129 221.075 259.204 220.877 259.353 220.728C259.513 220.579 259.71 220.504 259.945 220.504C260.19 220.504 260.388 220.579 260.537 220.728C260.686 220.877 260.761 221.075 260.761 221.32V228.616C260.761 229.459 260.564 230.216 260.169 230.888C259.785 231.56 259.262 232.093 258.601 232.488C257.94 232.872 257.193 233.064 256.361 233.064ZM256.361 231.624C256.905 231.624 257.39 231.496 257.817 231.24C258.244 230.973 258.58 230.611 258.825 230.152C259.07 229.693 259.193 229.181 259.193 228.616C259.193 228.04 259.07 227.528 258.825 227.08C258.58 226.632 258.244 226.28 257.817 226.024C257.39 225.757 256.905 225.624 256.361 225.624C255.828 225.624 255.342 225.757 254.905 226.024C254.478 226.28 254.137 226.632 253.881 227.08C253.636 227.528 253.513 228.04 253.513 228.616C253.513 229.181 253.636 229.693 253.881 230.152C254.137 230.611 254.478 230.973 254.905 231.24C255.342 231.496 255.828 231.624 256.361 231.624ZM267.291 233.064C266.512 233.064 265.814 232.872 265.195 232.488C264.576 232.093 264.086 231.565 263.723 230.904C263.371 230.232 263.195 229.475 263.195 228.632C263.195 227.789 263.387 227.032 263.771 226.36C264.166 225.688 264.694 225.16 265.355 224.776C266.027 224.381 266.779 224.184 267.611 224.184C268.443 224.184 269.19 224.381 269.851 224.776C270.512 225.16 271.035 225.688 271.419 226.36C271.814 227.032 272.011 227.789 272.011 228.632V232.2C272.011 232.435 271.931 232.632 271.771 232.792C271.622 232.941 271.43 233.016 271.195 233.016C270.96 233.016 270.763 232.941 270.603 232.792C270.454 232.632 270.379 232.435 270.379 232.2V231.608C270.006 232.056 269.552 232.413 269.019 232.68C268.496 232.936 267.92 233.064 267.291 233.064ZM267.611 231.624C268.155 231.624 268.64 231.496 269.067 231.24C269.494 230.973 269.83 230.616 270.075 230.168C270.32 229.709 270.443 229.197 270.443 228.632C270.443 228.056 270.32 227.544 270.075 227.096C269.83 226.637 269.494 226.28 269.067 226.024C268.64 225.757 268.155 225.624 267.611 225.624C267.078 225.624 266.592 225.757 266.155 226.024C265.728 226.28 265.387 226.637 265.131 227.096C264.886 227.544 264.763 228.056 264.763 228.632C264.763 229.197 264.886 229.709 265.131 230.168C265.387 230.616 265.728 230.973 266.155 231.24C266.592 231.496 267.078 231.624 267.611 231.624ZM275.24 233C274.707 233 274.44 232.733 274.44 232.2V225.048C274.44 224.515 274.707 224.248 275.24 224.248C275.773 224.248 276.04 224.515 276.04 225.048V225.352C276.36 224.979 276.749 224.685 277.208 224.472C277.677 224.259 278.184 224.152 278.728 224.152C279.368 224.152 279.843 224.259 280.152 224.472C280.472 224.675 280.595 224.92 280.52 225.208C280.467 225.432 280.36 225.581 280.2 225.656C280.04 225.72 279.853 225.731 279.64 225.688C278.957 225.549 278.344 225.539 277.8 225.656C277.256 225.773 276.824 225.992 276.504 226.312C276.195 226.632 276.04 227.037 276.04 227.528V232.2C276.04 232.733 275.773 233 275.24 233ZM283.789 236.84C283.683 236.84 283.555 236.808 283.405 236.744C282.936 236.531 282.808 236.195 283.021 235.736L284.621 232.136L281.021 225.304C280.915 225.101 280.899 224.909 280.973 224.728C281.059 224.536 281.203 224.397 281.405 224.312C281.608 224.227 281.8 224.221 281.981 224.296C282.163 224.36 282.301 224.493 282.397 224.696L285.325 230.52L287.901 224.712C288.115 224.264 288.451 224.136 288.909 224.328C289.389 224.531 289.523 224.867 289.309 225.336L284.413 236.344C284.285 236.675 284.077 236.84 283.789 236.84Z" fill="#2D8BBA"/>
<rect x="184.5" y="104.5" width="119" height="39" rx="3.5" fill="#CACACA" stroke="#1A1A1A"/>
<path d="M204.568 129.16C203.885 129.16 203.235 129.053 202.616 128.84C201.997 128.627 201.459 128.328 201 127.944C200.541 127.56 200.205 127.117 199.992 126.616C199.885 126.392 199.885 126.184 199.992 125.992C200.109 125.8 200.301 125.677 200.568 125.624C200.76 125.581 200.947 125.613 201.128 125.72C201.32 125.816 201.464 125.965 201.56 126.168C201.688 126.435 201.896 126.68 202.184 126.904C202.483 127.128 202.84 127.309 203.256 127.448C203.672 127.587 204.109 127.656 204.568 127.656C205.08 127.656 205.549 127.576 205.976 127.416C206.413 127.256 206.765 127.027 207.032 126.728C207.299 126.419 207.432 126.04 207.432 125.592C207.432 125.027 207.208 124.52 206.76 124.072C206.323 123.624 205.597 123.347 204.584 123.24C203.261 123.112 202.221 122.723 201.464 122.072C200.707 121.421 200.328 120.616 200.328 119.656C200.328 118.952 200.525 118.355 200.92 117.864C201.315 117.373 201.848 117 202.52 116.744C203.203 116.488 203.96 116.36 204.792 116.36C205.763 116.36 206.557 116.557 207.176 116.952C207.795 117.347 208.307 117.869 208.712 118.52C208.861 118.755 208.92 118.979 208.888 119.192C208.867 119.395 208.765 119.555 208.584 119.672C208.381 119.8 208.163 119.827 207.928 119.752C207.693 119.677 207.517 119.539 207.4 119.336C207.133 118.877 206.787 118.52 206.36 118.264C205.944 118.008 205.405 117.875 204.744 117.864C203.955 117.853 203.293 118.003 202.76 118.312C202.227 118.611 201.96 119.075 201.96 119.704C201.96 120.024 202.04 120.333 202.2 120.632C202.371 120.92 202.675 121.171 203.112 121.384C203.56 121.597 204.2 121.747 205.032 121.832C206.301 121.96 207.288 122.349 207.992 123C208.707 123.64 209.064 124.488 209.064 125.544C209.064 126.152 208.936 126.68 208.68 127.128C208.435 127.576 208.099 127.955 207.672 128.264C207.256 128.563 206.776 128.787 206.232 128.936C205.699 129.085 205.144 129.16 204.568 129.16ZM215.568 129.064C214.682 129.064 213.893 128.877 213.2 128.504C212.517 128.12 211.978 127.597 211.584 126.936C211.2 126.264 211.008 125.496 211.008 124.632C211.008 123.757 211.189 122.989 211.552 122.328C211.925 121.656 212.437 121.133 213.088 120.76C213.738 120.376 214.485 120.184 215.328 120.184C216.16 120.184 216.874 120.371 217.472 120.744C218.069 121.107 218.522 121.613 218.832 122.264C219.152 122.904 219.312 123.645 219.312 124.488C219.312 124.691 219.242 124.861 219.104 125C218.965 125.128 218.789 125.192 218.576 125.192H212.496C212.613 125.928 212.949 126.531 213.504 127C214.069 127.459 214.757 127.688 215.568 127.688C215.898 127.688 216.234 127.629 216.576 127.512C216.928 127.384 217.21 127.24 217.424 127.08C217.584 126.963 217.754 126.904 217.936 126.904C218.128 126.893 218.293 126.947 218.432 127.064C218.613 127.224 218.709 127.4 218.72 127.592C218.73 127.784 218.645 127.949 218.464 128.088C218.101 128.376 217.648 128.611 217.104 128.792C216.57 128.973 216.058 129.064 215.568 129.064ZM215.328 121.56C214.538 121.56 213.904 121.779 213.424 122.216C212.944 122.653 212.64 123.219 212.512 123.912H217.84C217.744 123.229 217.482 122.669 217.056 122.232C216.629 121.784 216.053 121.56 215.328 121.56ZM225.049 129.064C224.195 129.064 223.433 128.872 222.761 128.488C222.099 128.093 221.577 127.565 221.193 126.904C220.819 126.232 220.633 125.475 220.633 124.632C220.633 123.768 220.819 123 221.193 122.328C221.566 121.656 222.078 121.133 222.729 120.76C223.379 120.376 224.126 120.184 224.969 120.184C226.227 120.184 227.273 120.664 228.105 121.624C228.254 121.795 228.307 121.971 228.265 122.152C228.222 122.333 228.105 122.493 227.913 122.632C227.763 122.739 227.598 122.776 227.417 122.744C227.235 122.701 227.07 122.605 226.921 122.456C226.398 121.901 225.747 121.624 224.969 121.624C224.147 121.624 223.481 121.901 222.969 122.456C222.457 123 222.201 123.725 222.201 124.632C222.201 125.208 222.318 125.72 222.553 126.168C222.798 126.616 223.134 126.973 223.561 127.24C223.987 127.496 224.483 127.624 225.049 127.624C225.774 127.624 226.361 127.437 226.809 127.064C226.979 126.925 227.155 126.851 227.337 126.84C227.518 126.819 227.678 126.867 227.817 126.984C227.998 127.133 228.099 127.304 228.121 127.496C228.142 127.677 228.078 127.843 227.929 127.992C227.161 128.707 226.201 129.064 225.049 129.064ZM234.658 129.064C233.794 129.064 233.031 128.877 232.37 128.504C231.709 128.12 231.186 127.597 230.802 126.936C230.429 126.264 230.242 125.496 230.242 124.632C230.242 123.757 230.429 122.989 230.802 122.328C231.186 121.656 231.709 121.133 232.37 120.76C233.031 120.376 233.794 120.184 234.658 120.184C235.511 120.184 236.269 120.376 236.93 120.76C237.591 121.133 238.109 121.656 238.482 122.328C238.866 122.989 239.058 123.757 239.058 124.632C239.058 125.496 238.871 126.264 238.498 126.936C238.125 127.597 237.607 128.12 236.946 128.504C236.285 128.877 235.522 129.064 234.658 129.064ZM234.658 127.624C235.213 127.624 235.703 127.496 236.13 127.24C236.557 126.984 236.887 126.632 237.122 126.184C237.367 125.736 237.49 125.219 237.49 124.632C237.49 124.045 237.367 123.528 237.122 123.08C236.887 122.621 236.557 122.264 236.13 122.008C235.703 121.752 235.213 121.624 234.658 121.624C234.103 121.624 233.613 121.752 233.186 122.008C232.759 122.264 232.423 122.621 232.178 123.08C231.933 123.528 231.81 124.045 231.81 124.632C231.81 125.219 231.933 125.736 232.178 126.184C232.423 126.632 232.759 126.984 233.186 127.24C233.613 127.496 234.103 127.624 234.658 127.624ZM242.303 129.016C242.068 129.016 241.871 128.941 241.711 128.792C241.562 128.632 241.487 128.435 241.487 128.2V121.064C241.487 120.819 241.562 120.621 241.711 120.472C241.871 120.323 242.068 120.248 242.303 120.248C242.548 120.248 242.746 120.323 242.895 120.472C243.044 120.621 243.119 120.819 243.119 121.064V121.24C243.45 120.909 243.85 120.648 244.319 120.456C244.788 120.264 245.295 120.168 245.839 120.168C246.575 120.168 247.231 120.328 247.807 120.648C248.394 120.957 248.852 121.416 249.183 122.024C249.524 122.632 249.695 123.379 249.695 124.264V128.2C249.695 128.435 249.615 128.632 249.455 128.792C249.306 128.941 249.114 129.016 248.879 129.016C248.644 129.016 248.447 128.941 248.287 128.792C248.138 128.632 248.063 128.435 248.063 128.2V124.264C248.063 123.357 247.818 122.696 247.327 122.28C246.847 121.853 246.244 121.64 245.519 121.64C245.071 121.64 244.666 121.731 244.303 121.912C243.94 122.093 243.652 122.339 243.439 122.648C243.226 122.947 243.119 123.293 243.119 123.688V128.2C243.119 128.435 243.044 128.632 242.895 128.792C242.746 128.941 242.548 129.016 242.303 129.016ZM256.361 129.064C255.529 129.064 254.777 128.872 254.105 128.488C253.444 128.093 252.916 127.56 252.521 126.888C252.137 126.216 251.945 125.459 251.945 124.616C251.945 123.773 252.121 123.021 252.473 122.36C252.836 121.688 253.326 121.16 253.945 120.776C254.564 120.381 255.262 120.184 256.041 120.184C256.67 120.184 257.252 120.317 257.785 120.584C258.318 120.84 258.766 121.192 259.129 121.64V117.32C259.129 117.075 259.204 116.877 259.353 116.728C259.513 116.579 259.71 116.504 259.945 116.504C260.19 116.504 260.388 116.579 260.537 116.728C260.686 116.877 260.761 117.075 260.761 117.32V124.616C260.761 125.459 260.564 126.216 260.169 126.888C259.785 127.56 259.262 128.093 258.601 128.488C257.94 128.872 257.193 129.064 256.361 129.064ZM256.361 127.624C256.905 127.624 257.39 127.496 257.817 127.24C258.244 126.973 258.58 126.611 258.825 126.152C259.07 125.693 259.193 125.181 259.193 124.616C259.193 124.04 259.07 123.528 258.825 123.08C258.58 122.632 258.244 122.28 257.817 122.024C257.39 121.757 256.905 121.624 256.361 121.624C255.828 121.624 255.342 121.757 254.905 122.024C254.478 122.28 254.137 122.632 253.881 123.08C253.636 123.528 253.513 124.04 253.513 124.616C253.513 125.181 253.636 125.693 253.881 126.152C254.137 126.611 254.478 126.973 254.905 127.24C255.342 127.496 255.828 127.624 256.361 127.624ZM267.291 129.064C266.512 129.064 265.814 128.872 265.195 128.488C264.576 128.093 264.086 127.565 263.723 126.904C263.371 126.232 263.195 125.475 263.195 124.632C263.195 123.789 263.387 123.032 263.771 122.36C264.166 121.688 264.694 121.16 265.355 120.776C266.027 120.381 266.779 120.184 267.611 120.184C268.443 120.184 269.19 120.381 269.851 120.776C270.512 121.16 271.035 121.688 271.419 122.36C271.814 123.032 272.011 123.789 272.011 124.632V128.2C272.011 128.435 271.931 128.632 271.771 128.792C271.622 128.941 271.43 129.016 271.195 129.016C270.96 129.016 270.763 128.941 270.603 128.792C270.454 128.632 270.379 128.435 270.379 128.2V127.608C270.006 128.056 269.552 128.413 269.019 128.68C268.496 128.936 267.92 129.064 267.291 129.064ZM267.611 127.624C268.155 127.624 268.64 127.496 269.067 127.24C269.494 126.973 269.83 126.616 270.075 126.168C270.32 125.709 270.443 125.197 270.443 124.632C270.443 124.056 270.32 123.544 270.075 123.096C269.83 122.637 269.494 122.28 269.067 122.024C268.64 121.757 268.155 121.624 267.611 121.624C267.078 121.624 266.592 121.757 266.155 122.024C265.728 122.28 265.387 122.637 265.131 123.096C264.886 123.544 264.763 124.056 264.763 124.632C264.763 125.197 264.886 125.709 265.131 126.168C265.387 126.616 265.728 126.973 266.155 127.24C266.592 127.496 267.078 127.624 267.611 127.624ZM275.24 129C274.707 129 274.44 128.733 274.44 128.2V121.048C274.44 120.515 274.707 120.248 275.24 120.248C275.773 120.248 276.04 120.515 276.04 121.048V121.352C276.36 120.979 276.749 120.685 277.208 120.472C277.677 120.259 278.184 120.152 278.728 120.152C279.368 120.152 279.843 120.259 280.152 120.472C280.472 120.675 280.595 120.92 280.52 121.208C280.467 121.432 280.36 121.581 280.2 121.656C280.04 121.72 279.853 121.731 279.64 121.688C278.957 121.549 278.344 121.539 277.8 121.656C277.256 121.773 276.824 121.992 276.504 122.312C276.195 122.632 276.04 123.037 276.04 123.528V128.2C276.04 128.733 275.773 129 275.24 129ZM283.789 132.84C283.683 132.84 283.555 132.808 283.405 132.744C282.936 132.531 282.808 132.195 283.021 131.736L284.621 128.136L281.021 121.304C280.915 121.101 280.899 120.909 280.973 120.728C281.059 120.536 281.203 120.397 281.405 120.312C281.608 120.227 281.8 120.221 281.981 120.296C282.163 120.36 282.301 120.493 282.397 120.696L285.325 126.52L287.901 120.712C288.115 120.264 288.451 120.136 288.909 120.328C289.389 120.531 289.523 120.867 289.309 121.336L284.413 132.344C284.285 132.675 284.077 132.84 283.789 132.84Z" fill="#1A1A1A"/>
<rect x="1" y="209" width="118" height="38" rx="3" fill="#1A1A1A" stroke="#2D8BBA" stroke-width="2"/>
<path d="M30.432 233C30.1973 233 30 232.92 29.84 232.76C29.68 232.6 29.6 232.403 29.6 232.168V221.336C29.6 221.091 29.68 220.893 29.84 220.744C30 220.584 30.1973 220.504 30.432 220.504H33.632C34.432 220.504 35.1413 220.68 35.76 221.032C36.3787 221.384 36.8587 221.875 37.2 222.504C37.552 223.123 37.728 223.837 37.728 224.648C37.728 225.427 37.552 226.12 37.2 226.728C36.8587 227.336 36.3787 227.811 35.76 228.152C35.1413 228.493 34.432 228.664 33.632 228.664H31.264V232.168C31.264 232.403 31.184 232.6 31.024 232.76C30.8747 232.92 30.6773 233 30.432 233ZM31.264 227.128H33.632C34.3573 227.128 34.9547 226.899 35.424 226.44C35.8933 225.971 36.128 225.373 36.128 224.648C36.128 224.136 36.0213 223.688 35.808 223.304C35.5947 222.909 35.3013 222.6 34.928 222.376C34.5547 222.152 34.1227 222.04 33.632 222.04H31.264V227.128ZM40.2088 233C39.6754 233 39.4088 232.733 39.4088 232.2V225.048C39.4088 224.515 39.6754 224.248 40.2088 224.248C40.7421 224.248 41.0088 224.515 41.0088 225.048V225.352C41.3288 224.979 41.7181 224.685 42.1768 224.472C42.6461 224.259 43.1528 224.152 43.6968 224.152C44.3368 224.152 44.8114 224.259 45.1208 224.472C45.4408 224.675 45.5634 224.92 45.4888 225.208C45.4354 225.432 45.3288 225.581 45.1688 225.656C45.0088 225.72 44.8221 225.731 44.6088 225.688C43.9261 225.549 43.3128 225.539 42.7688 225.656C42.2248 225.773 41.7928 225.992 41.4728 226.312C41.1634 226.632 41.0088 227.037 41.0088 227.528V232.2C41.0088 232.733 40.7421 233 40.2088 233ZM48.166 233C47.9313 233 47.734 232.925 47.574 232.776C47.4247 232.616 47.35 232.419 47.35 232.184V225.064C47.35 224.819 47.4247 224.621 47.574 224.472C47.734 224.323 47.9313 224.248 48.166 224.248C48.4113 224.248 48.6087 224.323 48.758 224.472C48.9073 224.621 48.982 224.819 48.982 225.064V232.184C48.982 232.419 48.9073 232.616 48.758 232.776C48.6087 232.925 48.4113 233 48.166 233ZM48.166 222.824C47.878 222.824 47.6273 222.723 47.414 222.52C47.2113 222.307 47.11 222.056 47.11 221.768C47.11 221.48 47.2113 221.235 47.414 221.032C47.6273 220.819 47.878 220.712 48.166 220.712C48.454 220.712 48.6993 220.819 48.902 221.032C49.1153 221.235 49.222 221.48 49.222 221.768C49.222 222.056 49.1153 222.307 48.902 222.52C48.6993 222.723 48.454 222.824 48.166 222.824ZM52.8341 233.016C52.5995 233.016 52.4021 232.941 52.2421 232.792C52.0928 232.632 52.0181 232.435 52.0181 232.2V225.08C52.0181 224.835 52.0928 224.637 52.2421 224.488C52.4021 224.339 52.5995 224.264 52.8341 224.264C53.0795 224.264 53.2768 224.339 53.4261 224.488C53.5755 224.637 53.6501 224.824 53.6501 225.048C53.9275 224.771 54.2581 224.557 54.6421 224.408C55.0261 224.248 55.4421 224.168 55.8901 224.168C57.0101 224.168 57.8528 224.589 58.4181 225.432C58.7275 225.037 59.1221 224.728 59.6021 224.504C60.0821 224.28 60.6208 224.168 61.2181 224.168C62.1355 224.168 62.8821 224.467 63.4581 225.064C64.0341 225.661 64.3221 226.515 64.3221 227.624V232.2C64.3221 232.435 64.2475 232.632 64.0981 232.792C63.9488 232.941 63.7515 233.016 63.5061 233.016C63.2715 233.016 63.0741 232.941 62.9141 232.792C62.7648 232.632 62.6901 232.435 62.6901 232.2V227.624C62.6901 226.952 62.5248 226.456 62.1941 226.136C61.8635 225.805 61.4315 225.64 60.8981 225.64C60.3435 225.64 59.8848 225.832 59.5221 226.216C59.1701 226.6 58.9941 227.091 58.9941 227.688V232.2C58.9941 232.435 58.9195 232.632 58.7701 232.792C58.6208 232.941 58.4235 233.016 58.1781 233.016C57.9435 233.016 57.7461 232.941 57.5861 232.792C57.4368 232.632 57.3621 232.435 57.3621 232.2V227.624C57.3621 226.952 57.1968 226.456 56.8661 226.136C56.5355 225.805 56.1035 225.64 55.5701 225.64C55.0155 225.64 54.5568 225.832 54.1941 226.216C53.8315 226.6 53.6501 227.091 53.6501 227.688V232.2C53.6501 232.435 53.5755 232.632 53.4261 232.792C53.2768 232.941 53.0795 233.016 52.8341 233.016ZM70.6818 233.064C69.9031 233.064 69.2044 232.872 68.5858 232.488C67.9671 232.093 67.4764 231.565 67.1138 230.904C66.7618 230.232 66.5858 229.475 66.5858 228.632C66.5858 227.789 66.7778 227.032 67.1618 226.36C67.5564 225.688 68.0844 225.16 68.7458 224.776C69.4178 224.381 70.1698 224.184 71.0018 224.184C71.8338 224.184 72.5804 224.381 73.2418 224.776C73.9031 225.16 74.4258 225.688 74.8098 226.36C75.2044 227.032 75.4018 227.789 75.4018 228.632V232.2C75.4018 232.435 75.3218 232.632 75.1618 232.792C75.0124 232.941 74.8204 233.016 74.5858 233.016C74.3511 233.016 74.1538 232.941 73.9938 232.792C73.8444 232.632 73.7698 232.435 73.7698 232.2V231.608C73.3964 232.056 72.9431 232.413 72.4098 232.68C71.8871 232.936 71.3111 233.064 70.6818 233.064ZM71.0018 231.624C71.5458 231.624 72.0311 231.496 72.4578 231.24C72.8844 230.973 73.2204 230.616 73.4658 230.168C73.7111 229.709 73.8338 229.197 73.8338 228.632C73.8338 228.056 73.7111 227.544 73.4658 227.096C73.2204 226.637 72.8844 226.28 72.4578 226.024C72.0311 225.757 71.5458 225.624 71.0018 225.624C70.4684 225.624 69.9831 225.757 69.5458 226.024C69.1191 226.28 68.7778 226.637 68.5218 227.096C68.2764 227.544 68.1538 228.056 68.1538 228.632C68.1538 229.197 68.2764 229.709 68.5218 230.168C68.7778 230.616 69.1191 230.973 69.5458 231.24C69.9831 231.496 70.4684 231.624 71.0018 231.624ZM78.6306 233C78.0973 233 77.8306 232.733 77.8306 232.2V225.048C77.8306 224.515 78.0973 224.248 78.6306 224.248C79.164 224.248 79.4306 224.515 79.4306 225.048V225.352C79.7506 224.979 80.14 224.685 80.5986 224.472C81.068 224.259 81.5746 224.152 82.1186 224.152C82.7586 224.152 83.2333 224.259 83.5426 224.472C83.8626 224.675 83.9853 224.92 83.9106 225.208C83.8573 225.432 83.7506 225.581 83.5906 225.656C83.4306 225.72 83.244 225.731 83.0306 225.688C82.348 225.549 81.7346 225.539 81.1906 225.656C80.6466 225.773 80.2146 225.992 79.8946 226.312C79.5853 226.632 79.4306 227.037 79.4306 227.528V232.2C79.4306 232.733 79.164 233 78.6306 233ZM87.1799 236.84C87.0732 236.84 86.9452 236.808 86.7959 236.744C86.3265 236.531 86.1985 236.195 86.4119 235.736L88.0119 232.136L84.4119 225.304C84.3052 225.101 84.2892 224.909 84.3639 224.728C84.4492 224.536 84.5932 224.397 84.7959 224.312C84.9985 224.227 85.1905 224.221 85.3719 224.296C85.5532 224.36 85.6919 224.493 85.7879 224.696L88.7159 230.52L91.2919 224.712C91.5052 224.264 91.8412 224.136 92.2999 224.328C92.7799 224.531 92.9132 224.867 92.6999 225.336L87.8039 236.344C87.6759 236.675 87.4679 236.84 87.1799 236.84Z" fill="white"/>
<rect y="104" width="120" height="40" rx="4" fill="#333333"/>
<path d="M30.432 129C30.1973 129 30 128.92 29.84 128.76C29.68 128.6 29.6 128.403 29.6 128.168V117.336C29.6 117.091 29.68 116.893 29.84 116.744C30 116.584 30.1973 116.504 30.432 116.504H33.632C34.432 116.504 35.1413 116.68 35.76 117.032C36.3787 117.384 36.8587 117.875 37.2 118.504C37.552 119.123 37.728 119.837 37.728 120.648C37.728 121.427 37.552 122.12 37.2 122.728C36.8587 123.336 36.3787 123.811 35.76 124.152C35.1413 124.493 34.432 124.664 33.632 124.664H31.264V128.168C31.264 128.403 31.184 128.6 31.024 128.76C30.8747 128.92 30.6773 129 30.432 129ZM31.264 123.128H33.632C34.3573 123.128 34.9547 122.899 35.424 122.44C35.8933 121.971 36.128 121.373 36.128 120.648C36.128 120.136 36.0213 119.688 35.808 119.304C35.5947 118.909 35.3013 118.6 34.928 118.376C34.5547 118.152 34.1227 118.04 33.632 118.04H31.264V123.128ZM40.2088 129C39.6754 129 39.4088 128.733 39.4088 128.2V121.048C39.4088 120.515 39.6754 120.248 40.2088 120.248C40.7421 120.248 41.0088 120.515 41.0088 121.048V121.352C41.3288 120.979 41.7181 120.685 42.1768 120.472C42.6461 120.259 43.1528 120.152 43.6968 120.152C44.3368 120.152 44.8114 120.259 45.1208 120.472C45.4408 120.675 45.5634 120.92 45.4888 121.208C45.4354 121.432 45.3288 121.581 45.1688 121.656C45.0088 121.72 44.8221 121.731 44.6088 121.688C43.9261 121.549 43.3128 121.539 42.7688 121.656C42.2248 121.773 41.7928 121.992 41.4728 122.312C41.1634 122.632 41.0088 123.037 41.0088 123.528V128.2C41.0088 128.733 40.7421 129 40.2088 129ZM48.166 129C47.9313 129 47.734 128.925 47.574 128.776C47.4247 128.616 47.35 128.419 47.35 128.184V121.064C47.35 120.819 47.4247 120.621 47.574 120.472C47.734 120.323 47.9313 120.248 48.166 120.248C48.4113 120.248 48.6087 120.323 48.758 120.472C48.9073 120.621 48.982 120.819 48.982 121.064V128.184C48.982 128.419 48.9073 128.616 48.758 128.776C48.6087 128.925 48.4113 129 48.166 129ZM48.166 118.824C47.878 118.824 47.6273 118.723 47.414 118.52C47.2113 118.307 47.11 118.056 47.11 117.768C47.11 117.48 47.2113 117.235 47.414 117.032C47.6273 116.819 47.878 116.712 48.166 116.712C48.454 116.712 48.6993 116.819 48.902 117.032C49.1153 117.235 49.222 117.48 49.222 117.768C49.222 118.056 49.1153 118.307 48.902 118.52C48.6993 118.723 48.454 118.824 48.166 118.824ZM52.8341 129.016C52.5995 129.016 52.4021 128.941 52.2421 128.792C52.0928 128.632 52.0181 128.435 52.0181 128.2V121.08C52.0181 120.835 52.0928 120.637 52.2421 120.488C52.4021 120.339 52.5995 120.264 52.8341 120.264C53.0795 120.264 53.2768 120.339 53.4261 120.488C53.5755 120.637 53.6501 120.824 53.6501 121.048C53.9275 120.771 54.2581 120.557 54.6421 120.408C55.0261 120.248 55.4421 120.168 55.8901 120.168C57.0101 120.168 57.8528 120.589 58.4181 121.432C58.7275 121.037 59.1221 120.728 59.6021 120.504C60.0821 120.28 60.6208 120.168 61.2181 120.168C62.1355 120.168 62.8821 120.467 63.4581 121.064C64.0341 121.661 64.3221 122.515 64.3221 123.624V128.2C64.3221 128.435 64.2475 128.632 64.0981 128.792C63.9488 128.941 63.7515 129.016 63.5061 129.016C63.2715 129.016 63.0741 128.941 62.9141 128.792C62.7648 128.632 62.6901 128.435 62.6901 128.2V123.624C62.6901 122.952 62.5248 122.456 62.1941 122.136C61.8635 121.805 61.4315 121.64 60.8981 121.64C60.3435 121.64 59.8848 121.832 59.5221 122.216C59.1701 122.6 58.9941 123.091 58.9941 123.688V128.2C58.9941 128.435 58.9195 128.632 58.7701 128.792C58.6208 128.941 58.4235 129.016 58.1781 129.016C57.9435 129.016 57.7461 128.941 57.5861 128.792C57.4368 128.632 57.3621 128.435 57.3621 128.2V123.624C57.3621 122.952 57.1968 122.456 56.8661 122.136C56.5355 121.805 56.1035 121.64 55.5701 121.64C55.0155 121.64 54.5568 121.832 54.1941 122.216C53.8315 122.6 53.6501 123.091 53.6501 123.688V128.2C53.6501 128.435 53.5755 128.632 53.4261 128.792C53.2768 128.941 53.0795 129.016 52.8341 129.016ZM70.6818 129.064C69.9031 129.064 69.2044 128.872 68.5858 128.488C67.9671 128.093 67.4764 127.565 67.1138 126.904C66.7618 126.232 66.5858 125.475 66.5858 124.632C66.5858 123.789 66.7778 123.032 67.1618 122.36C67.5564 121.688 68.0844 121.16 68.7458 120.776C69.4178 120.381 70.1698 120.184 71.0018 120.184C71.8338 120.184 72.5804 120.381 73.2418 120.776C73.9031 121.16 74.4258 121.688 74.8098 122.36C75.2044 123.032 75.4018 123.789 75.4018 124.632V128.2C75.4018 128.435 75.3218 128.632 75.1618 128.792C75.0124 128.941 74.8204 129.016 74.5858 129.016C74.3511 129.016 74.1538 128.941 73.9938 128.792C73.8444 128.632 73.7698 128.435 73.7698 128.2V127.608C73.3964 128.056 72.9431 128.413 72.4098 128.68C71.8871 128.936 71.3111 129.064 70.6818 129.064ZM71.0018 127.624C71.5458 127.624 72.0311 127.496 72.4578 127.24C72.8844 126.973 73.2204 126.616 73.4658 126.168C73.7111 125.709 73.8338 125.197 73.8338 124.632C73.8338 124.056 73.7111 123.544 73.4658 123.096C73.2204 122.637 72.8844 122.28 72.4578 122.024C72.0311 121.757 71.5458 121.624 71.0018 121.624C70.4684 121.624 69.9831 121.757 69.5458 122.024C69.1191 122.28 68.7778 122.637 68.5218 123.096C68.2764 123.544 68.1538 124.056 68.1538 124.632C68.1538 125.197 68.2764 125.709 68.5218 126.168C68.7778 126.616 69.1191 126.973 69.5458 127.24C69.9831 127.496 70.4684 127.624 71.0018 127.624ZM78.6306 129C78.0973 129 77.8306 128.733 77.8306 128.2V121.048C77.8306 120.515 78.0973 120.248 78.6306 120.248C79.164 120.248 79.4306 120.515 79.4306 121.048V121.352C79.7506 120.979 80.14 120.685 80.5986 120.472C81.068 120.259 81.5746 120.152 82.1186 120.152C82.7586 120.152 83.2333 120.259 83.5426 120.472C83.8626 120.675 83.9853 120.92 83.9106 121.208C83.8573 121.432 83.7506 121.581 83.5906 121.656C83.4306 121.72 83.244 121.731 83.0306 121.688C82.348 121.549 81.7346 121.539 81.1906 121.656C80.6466 121.773 80.2146 121.992 79.8946 122.312C79.5853 122.632 79.4306 123.037 79.4306 123.528V128.2C79.4306 128.733 79.164 129 78.6306 129ZM87.1799 132.84C87.0732 132.84 86.9452 132.808 86.7959 132.744C86.3265 132.531 86.1985 132.195 86.4119 131.736L88.0119 128.136L84.4119 121.304C84.3052 121.101 84.2892 120.909 84.3639 120.728C84.4492 120.536 84.5932 120.397 84.7959 120.312C84.9985 120.227 85.1905 120.221 85.3719 120.296C85.5532 120.36 85.6919 120.493 85.7879 120.696L88.7159 126.52L91.2919 120.712C91.5052 120.264 91.8412 120.136 92.2999 120.328C92.7799 120.531 92.9132 120.867 92.6999 121.336L87.8039 132.344C87.6759 132.675 87.4679 132.84 87.1799 132.84Z" fill="white"/>
</svg>
