<svg width="810" height="810" viewBox="0 0 810 810" fill="none" xmlns="http://www.w3.org/2000/svg">
<path d="M647.207 723.75C647.762 722.473 646.684 721.785 646.094 720.973C638.59 710.18 631.055 699.41 623.5 688.664C613.211 673.973 602.934 659.273 592.664 644.562C591.969 643.641 591.523 642.613 591.332 641.477C589.691 628.879 587.336 616.422 584.262 604.098C577.703 576.633 568.297 550.176 556.039 524.734C543.066 498.07 527.039 473.438 506.453 451.938C485.336 429.895 460.879 412.781 432.293 401.707C431.359 401.297 430.387 401.063 429.367 401.004C429.641 401.344 429.941 401.645 430.281 401.918C467.504 426.816 492.348 461.238 507.988 502.758C515.016 521.707 520.035 541.172 523.047 561.156C526.395 582.621 527.77 604.215 527.172 625.93C527.016 631.598 526.551 637.254 526.227 643.062C525.316 643.152 524.637 643.254 524.004 643.285C523.371 643.32 522.414 643.285 521.613 643.285C423.43 643.285 325.242 643.285 227.059 643.285C226.566 643.242 226.078 643.27 225.59 643.363C225.105 643.457 224.641 643.617 224.199 643.84C223.762 644.066 223.359 644.344 222.996 644.68C222.633 645.016 222.324 645.398 222.066 645.82C204.727 670.754 187.312 695.645 169.824 720.496C169.137 721.473 168.082 722.352 168.457 723.828L647.207 723.75Z" fill="#BFBFBF"/>
<path d="M647.387 75.75H168.68C168.391 76.9961 169.402 77.6719 169.969 78.4727C179.516 92.1602 189.082 105.84 198.668 119.516C206.77 131.078 214.855 142.652 222.934 154.234C223.66 155.238 224.117 156.348 224.312 157.57C226.461 173.781 229.73 189.762 234.129 205.512C242.43 236.344 254 265.855 269.852 293.609C283.281 317.129 299.418 338.531 319.383 356.941C328.73 365.652 338.812 373.406 349.637 380.199C360.461 386.996 371.828 392.707 383.738 397.34C384.582 397.699 385.461 397.883 386.375 397.895C386.07 397.559 385.742 397.25 385.387 396.973C351.66 374.418 327.82 343.828 311.922 306.766C303.434 286.648 297.352 265.832 293.684 244.312C289.406 219.918 287.687 195.344 288.527 170.59C288.672 165.715 289.105 160.848 289.426 155.805C290.27 155.691 290.937 155.57 291.648 155.535C292.539 155.535 293.43 155.535 294.316 155.535H586.93C587.641 155.48 588.352 155.48 589.062 155.535C590.953 155.805 592.121 155.047 593.219 153.469C610.797 128.285 628.406 103.102 646.051 77.918C646.484 77.3281 646.84 76.6484 647.387 75.75Z" fill="#BFBFBF"/>
<path d="M167.289 725.25C166.734 723.973 167.813 723.285 168.402 722.473C175.91 711.68 183.441 700.91 191 690.164C201.285 675.473 211.563 660.773 221.832 646.062C222.527 645.141 222.973 644.113 223.168 642.977C224.805 630.379 227.16 617.922 230.238 605.598C236.797 578.133 246.203 551.676 258.457 526.234C271.43 499.57 287.457 474.938 308.043 453.438C329.164 431.395 353.617 414.281 382.207 403.207C383.137 402.797 384.113 402.563 385.129 402.504C384.859 402.844 384.555 403.145 384.219 403.418C346.992 428.316 322.148 462.738 306.512 504.258C299.48 523.207 294.461 542.672 291.449 562.656C288.102 584.121 286.727 605.715 287.324 627.43C287.48 633.098 287.949 638.754 288.27 644.562C289.18 644.652 289.859 644.754 290.492 644.785C291.125 644.82 292.082 644.785 292.883 644.785C391.066 644.785 489.254 644.785 587.441 644.785C587.934 644.742 588.422 644.77 588.906 644.863C589.391 644.957 589.855 645.117 590.297 645.34C590.738 645.566 591.141 645.844 591.5 646.18C591.863 646.516 592.176 646.898 592.43 647.32C609.77 672.254 627.184 697.145 644.672 721.996C645.363 722.973 646.418 723.852 646.039 725.328L167.289 725.25Z" fill="#242424"/>
<path d="M167.113 77.25H645.816C646.105 78.4961 645.094 79.1719 644.527 79.9727C634.984 93.6602 625.418 107.34 615.828 121.016C607.73 132.578 599.641 144.152 591.562 155.734C590.84 156.738 590.379 157.848 590.184 159.07C588.039 175.281 584.766 191.262 580.371 207.012C572.066 237.844 560.496 267.355 544.645 295.109C531.219 318.629 515.078 340.031 495.117 358.441C485.77 367.152 475.684 374.906 464.859 381.699C454.035 388.496 442.668 394.207 430.758 398.84C429.918 399.199 429.039 399.383 428.125 399.395C428.426 399.059 428.758 398.75 429.113 398.473C462.836 375.918 486.68 345.328 502.574 308.266C511.062 288.148 517.145 267.332 520.812 245.812C525.09 221.418 526.809 196.844 525.973 172.09C525.828 167.215 525.395 162.348 525.07 157.305C524.227 157.191 523.559 157.07 522.848 157.035C521.961 157.035 521.07 157.035 520.18 157.035H227.57C226.859 156.98 226.145 156.98 225.434 157.035C223.547 157.305 222.379 156.547 221.277 154.969C203.699 129.785 186.09 104.602 168.445 79.418C168.012 78.8281 167.656 78.1484 167.113 77.25Z" fill="#242424"/>
</svg>
